<svg id="Ebene_1" data-name="Ebene 1" xmlns="http://www.w3.org/2000/svg" viewBox="0 0 1024 768"><defs><style>.cls-1{fill:#3c4241;}.cls-11,.cls-2{fill:#686868;}.cls-3{font-size:70px;}.cls-15,.cls-3,.cls-8{fill:#fff;}.cls-10,.cls-11,.cls-14,.cls-15,.cls-16,.cls-29,.cls-3,.cls-8{font-family:Function-Regular, Function;}.cls-4{letter-spacing:-0.03em;}.cls-10,.cls-14,.cls-5{fill:#c4c4bf;}.cls-6{fill:#d1ce90;}.cls-16,.cls-29,.cls-7{fill:#c4b769;}.cls-10,.cls-8{font-size:30px;}.cls-9{letter-spacing:-0.01em;}.cls-11,.cls-14,.cls-15{font-size:20px;}.cls-12{letter-spacing:-0.02em;}.cls-13{letter-spacing:-0.09em;}.cls-16{font-size:40px;}.cls-17{letter-spacing:-0.06em;}.cls-18{letter-spacing:-0.14em;}.cls-19{letter-spacing:0.56em;}.cls-20{letter-spacing:-0.08em;}.cls-21{letter-spacing:-0.08em;}.cls-22{letter-spacing:-0.07em;}.cls-23{letter-spacing:-0.08em;}.cls-24{letter-spacing:-0.08em;}.cls-25{letter-spacing:-0.09em;}.cls-26{letter-spacing:-0.07em;}.cls-27{letter-spacing:-0.08em;}.cls-28{letter-spacing:-0.02em;}.cls-29{font-size:50px;}.cls-30{letter-spacing:-0.02em;}.cls-31{letter-spacing:0.01em;}.cls-32{letter-spacing:-0.07em;}.cls-33{letter-spacing:-0.03em;}.cls-34{letter-spacing:0.01em;}.cls-35{letter-spacing:-0.02em;}.cls-36{letter-spacing:0em;}.cls-37{letter-spacing:0em;}.cls-38{letter-spacing:-0.01em;}.cls-39{letter-spacing:0.01em;}.cls-40{fill:none;stroke:#c4b769;stroke-linecap:round;stroke-miterlimit:10;stroke-width:2px;}</style></defs><title>appkalender</title><rect class="cls-1" width="1024" height="768"/><rect class="cls-2" x="208" y="404" width="67" height="67" rx="12" ry="12"/><text class="cls-3" transform="translate(82 85.03)"><tspan class="cls-4">K</tspan><tspan x="37.73" y="0">alender</tspan></text><circle class="cls-5" cx="220.81" cy="297" r="6.81"/><circle class="cls-6" cx="294.5" cy="297" r="6.81"/><circle class="cls-5" cx="296.5" cy="458" r="6.81"/><circle class="cls-7" cx="364.19" cy="297" r="6.81"/><circle class="cls-5" cx="222.19" cy="544" r="6.81"/><circle class="cls-5" cx="439.19" cy="623" r="6.81"/><circle class="cls-5" cx="438.19" cy="623" r="6.81"/><circle class="cls-5" cx="316.19" cy="624" r="6.81"/><circle class="cls-6" cx="148.5" cy="544" r="6.81"/><circle class="cls-6" cx="148.5" cy="624" r="6.81"/><circle class="cls-6" cx="220.5" cy="624" r="6.81"/><circle class="cls-7" cx="78.81" cy="544" r="6.81"/><circle class="cls-7" cx="439.19" cy="458" r="6.81"/><circle class="cls-5" cx="222.81" cy="365" r="6.81"/><circle class="cls-5" cx="296.81" cy="544" r="6.81"/><circle class="cls-7" cx="296.5" cy="436" r="6.81"/><circle class="cls-6" cx="316.19" cy="436" r="6.81"/><circle class="cls-5" cx="337.81" cy="436" r="6.81"/><circle class="cls-6" cx="296.5" cy="365" r="6.81"/><circle class="cls-7" cx="366.19" cy="365" r="6.81"/><circle class="cls-7" cx="296.19" cy="624" r="6.81"/><circle class="cls-7" cx="241.19" cy="365" r="6.81"/><text class="cls-8" transform="translate(72.05 269.51)">Mo</text><text class="cls-8" transform="translate(144.05 269.51)">Di</text><text class="cls-8" transform="translate(216.05 269.51)">Mi</text><text class="cls-8" transform="translate(288.05 269.51)">Do</text><text class="cls-8" transform="translate(360.05 269.51)"><tspan class="cls-9">F</tspan><tspan x="12.56" y="0">r</tspan></text><text class="cls-10" transform="translate(432.05 269.51)">Sa</text><text class="cls-10" transform="translate(504.05 269.51)">So</text><text class="cls-11" transform="translate(72.05 337.22)"><tspan class="cls-12">2</tspan><tspan x="10.88" y="0">7</tspan></text><text class="cls-11" transform="translate(144.05 337.22)">28</text><text class="cls-11" transform="translate(216.05 337.22)">29</text><text class="cls-11" transform="translate(288.05 337.22)">30</text><text class="cls-11" transform="translate(360.05 337.22)"><tspan class="cls-13">3</tspan><tspan x="9.52" y="0">1</tspan></text><text class="cls-14" transform="translate(432.05 337.22)">1</text><text class="cls-14" transform="translate(504.05 337.22)">2</text><text class="cls-15" transform="translate(72.05 423.22)">3</text><text class="cls-15" transform="translate(144.05 423.22)">4</text><text class="cls-16" transform="translate(216.05 437.8)">5</text><text class="cls-15" transform="translate(288.05 423.22)">6</text><text class="cls-15" transform="translate(360.05 423.22)">7</text><text class="cls-14" transform="translate(432.05 423.22)">8</text><text class="cls-14" transform="translate(504.05 423.22)">9</text><text class="cls-15" transform="translate(72.05 509.22)"><tspan class="cls-17">1</tspan><tspan x="10.24" y="0">0</tspan></text><text class="cls-15" transform="translate(144.05 509.22)"><tspan class="cls-18">1</tspan><tspan x="8.56" y="0">1</tspan><tspan class="cls-19" x="19.9" y="0">	</tspan></text><text class="cls-15" transform="translate(216.05 509.22)"><tspan class="cls-20">1</tspan><tspan x="9.74" y="0">2</tspan></text><text class="cls-15" transform="translate(288.05 509.22)"><tspan class="cls-21">1</tspan><tspan x="9.84" y="0">3</tspan></text><text class="cls-15" transform="translate(360.05 509.22)"><tspan class="cls-22">1</tspan><tspan x="9.88" y="0">4</tspan></text><text class="cls-14" transform="translate(432.05 509.22)"><tspan class="cls-23">1</tspan><tspan x="9.78" y="0">5</tspan></text><text class="cls-14" transform="translate(504.05 509.22)"><tspan class="cls-24">1</tspan><tspan x="9.82" y="0">6</tspan></text><text class="cls-15" transform="translate(72.05 595.22)"><tspan class="cls-25">1</tspan><tspan x="9.48" y="0">7</tspan></text><text class="cls-15" transform="translate(144.05 595.22)"><tspan class="cls-26">1</tspan><tspan x="9.86" y="0">8</tspan></text><text class="cls-15" transform="translate(216.05 595.22)"><tspan class="cls-26">1</tspan><tspan x="9.86" y="0">9</tspan></text><text class="cls-15" transform="translate(288.05 595.22)">20</text><text class="cls-15" transform="translate(360.05 595.22)"><tspan class="cls-27">2</tspan><tspan x="9.66" y="0">1</tspan></text><text class="cls-14" transform="translate(432.05 595.22)">22</text><text class="cls-14" transform="translate(504.05 595.22)">23</text><text class="cls-15" transform="translate(72.05 681.22)"><tspan class="cls-28">2</tspan><tspan x="11.04" y="0">4</tspan></text><text class="cls-15" transform="translate(144.05 681.22)">25</text><text class="cls-15" transform="translate(216.05 681.22)">26</text><text class="cls-15" transform="translate(288.05 681.22)"><tspan class="cls-12">2</tspan><tspan x="10.88" y="0">7</tspan></text><text class="cls-15" transform="translate(360.05 681.22)">28</text><text class="cls-14" transform="translate(432.05 681.22)">29</text><text class="cls-14" transform="translate(504.05 681.22)">30</text><text class="cls-29" transform="translate(261.28 194.71)">Juni</text><path class="cls-7" d="M420.33,173.14l-36.71-9.95a5.24,5.24,0,0,0-6.61,5.06v19.9a5.24,5.24,0,0,0,6.61,5.06l36.71-9.95A5.24,5.24,0,0,0,420.33,173.14Z"/><path class="cls-7" d="M171.87,173.14l36.71-9.95a5.24,5.24,0,0,1,6.61,5.06v19.9a5.24,5.24,0,0,1-6.61,5.06l-36.71-9.95A5.24,5.24,0,0,1,171.87,173.14Z"/><text class="cls-16" transform="translate(742.55 218.16)">Mitt<tspan class="cls-30" x="59.96" y="0">w</tspan><tspan x="86.52" y="0">o</tspan><tspan class="cls-31" x="107.36" y="0">c</tspan><tspan x="125.15" y="0">h</tspan><tspan x="-36.3" y="48">05. Juni 2</tspan><tspan class="cls-32" x="118.77" y="48">0</tspan><tspan class="cls-25" x="138.57" y="48">1</tspan><tspan x="157.53" y="48">7</tspan></text><circle class="cls-7" cx="644" cy="333" r="10.9"/><circle class="cls-6" cx="644" cy="429" r="10.9"/><circle class="cls-5" cx="642" cy="525" r="10.9"/><text class="cls-8" transform="translate(677 336.61)"><tspan class="cls-33">K</tspan><tspan x="16.07" y="0">ö</tspan><tspan class="cls-34" x="31.7" y="0">r</tspan><tspan x="40.79" y="0">ne</tspan><tspan class="cls-34" x="69.29" y="0">r</tspan><tspan x="78.37" y="0">pa</tspan><tspan class="cls-34" x="109.81" y="0">r</tspan><tspan x="118.9" y="0">k</tspan></text><text class="cls-14" transform="translate(677 365.53)"><tspan class="cls-34">N</tspan><tspan x="15.5" y="0">eu</tspan><tspan class="cls-35" x="34.42" y="0">k</tspan><tspan x="42.35" y="0">ölln</tspan></text><text class="cls-8" transform="translate(677 428.61)">S<tspan class="cls-31" x="15.51" y="0">c</tspan><tspan x="28.85" y="0">hlosspa</tspan><tspan class="cls-34" x="117.2" y="0">r</tspan><tspan x="126.28" y="0">k Cha</tspan><tspan class="cls-34" x="195.58" y="0">r</tspan><tspan x="204.67" y="0">l</tspan><tspan class="cls-36" x="210.88" y="0">o</tspan><tspan x="226.57" y="0">t</tspan><tspan class="cls-37" x="232.99" y="0">t</tspan><tspan x="239.55" y="0">enbu</tspan><tspan class="cls-38" x="297.72" y="0">r</tspan><tspan x="306.21" y="0">g </tspan></text><text class="cls-14" transform="translate(677 457.53)">Cha<tspan class="cls-34" x="32.78" y="0">r</tspan><tspan x="38.84" y="0">l</tspan><tspan class="cls-36" x="42.98" y="0">o</tspan><tspan x="53.43" y="0">t</tspan><tspan class="cls-37" x="57.71" y="0">t</tspan><tspan x="62.09" y="0">enbu</tspan><tspan class="cls-38" x="100.87" y="0">r</tspan><tspan x="106.53" y="0">g</tspan></text><text class="cls-8" transform="translate(677 520.61)">B<tspan class="cls-30" x="15.9" y="0">o</tspan><tspan x="30.99" y="0">xha</tspan><tspan class="cls-39" x="74.4" y="0">g</tspan><tspan x="90.32" y="0">ener Platz</tspan></text><text class="cls-14" transform="translate(677 549.53)"><tspan class="cls-9">F</tspan><tspan class="cls-34" x="8.38" y="0">r</tspan><tspan x="14.43" y="0">ied</tspan><tspan class="cls-34" x="38.69" y="0">r</tspan><tspan x="44.75" y="0">i</tspan><tspan class="cls-31" x="48.91" y="0">c</tspan><tspan x="57.8" y="0">hshain</tspan></text><circle class="cls-6" cx="241.19" cy="458" r="6.81"/><circle class="cls-7" cx="222.5" cy="458" r="6.81"/><circle class="cls-5" cx="260.19" cy="458" r="6.81"/><rect class="cls-2" x="923" y="27" width="62" height="61" rx="15.77" ry="15.77"/><path class="cls-7" d="M961.63,72.61a5,5,0,0,1-1.1,3.19,3.47,3.47,0,0,1-2.65,1.32h-6.76c-2.07,0-3.76-2-3.76-4.51a5,5,0,0,1,1.1-3.19,3.47,3.47,0,0,1,2.65-1.32h6.76C959.95,68.1,961.63,70.13,961.63,72.61Z"/><path class="cls-7" d="M980,58a5.15,5.15,0,0,1-1.1,3.24,3.45,3.45,0,0,1-2.65,1.35h-6.76c-2.07,0-3.76-2.07-3.76-4.59a5.15,5.15,0,0,1,1.1-3.24,3.45,3.45,0,0,1,2.65-1.35h6.76C978.31,53.41,980,55.47,980,58Z"/><path class="cls-7" d="M961.63,43.39a5,5,0,0,1-1.1,3.19,3.47,3.47,0,0,1-2.65,1.32h-6.76c-2.07,0-3.76-2-3.76-4.51a5,5,0,0,1,1.1-3.19,3.47,3.47,0,0,1,2.65-1.32h6.76C959.95,38.88,961.63,40.91,961.63,43.39Z"/><path class="cls-7" d="M961.63,58a5.15,5.15,0,0,1-1.1,3.24,3.45,3.45,0,0,1-2.65,1.35h-6.76c-2.07,0-3.76-2.07-3.76-4.59a5.15,5.15,0,0,1,1.1-3.24,3.45,3.45,0,0,1,2.65-1.35h6.76C959.95,53.41,961.63,55.47,961.63,58Z"/><path class="cls-7" d="M943.27,58a5.15,5.15,0,0,1-1.1,3.24,3.45,3.45,0,0,1-2.65,1.35h-6.76c-2.07,0-3.76-2.07-3.76-4.59a5.15,5.15,0,0,1,1.1-3.24,3.45,3.45,0,0,1,2.65-1.35h6.76C941.58,53.41,943.27,55.47,943.27,58Z"/><rect class="cls-2" x="833" y="27" width="61" height="61" rx="15.52" ry="15.52"/><path class="cls-7" d="M868,73.38h0a4.62,4.62,0,0,1-9.23.25,2.17,2.17,0,0,1,0-.26,4.62,4.62,0,1,1,9.24,0Z"/><path class="cls-7" d="M878.08,65.4c-.79.79-6.44.84-14.28.84s-15.45.16-16-.84c-.84-1.68,3-2.89,3-3.9.36-16.52,5.43-17.94,9.63-18.78.51-.1,2-6.72,2.52-6.72.87,0,1.74,6.58,2.52,6.72,5.28.93,9.42,2.46,10.6,19C876.13,62.62,878.92,64.56,878.08,65.4Z"/><line class="cls-40" x1="590" y1="695" x2="590" y2="179"/></svg>