<svg xmlns="http://www.w3.org/2000/svg" viewBox="0 0 1024 768"><defs><style>.cls-1,.cls-4{fill:#fff;}.cls-10,.cls-2{opacity:0.7;}.cls-3{fill:#eae4b5;}.cls-4{opacity:0.8;}.cls-5{font-size:40px;}.cls-10,.cls-5,.cls-8{fill:#738280;font-family:Function-Regular, Function;}.cls-6{letter-spacing:-0.02em;}.cls-7{letter-spacing:0em;}.cls-10,.cls-8{font-size:20px;}.cls-8{opacity:0.7;}.cls-9{letter-spacing:0.01em;}.cls-11{letter-spacing:-0.03em;}.cls-12{letter-spacing:-0.02em;}.cls-13{letter-spacing:0.03em;}.cls-14,.cls-15{fill:#d1ce90;}.cls-15{stroke:#d1ce90;stroke-miterlimit:10;stroke-width:0.5px;}</style></defs><title>appstart</title><g id="Ebene_2" data-name="Ebene 2"><rect class="cls-1" width="1024" height="768"/></g><g id="Ebene_1" data-name="Ebene 1"><g class="cls-2"><rect class="cls-3" width="1024" height="768"/></g><rect class="cls-4" x="371" y="397" width="282" height="37" rx="9.29" ry="9.29"/><rect class="cls-4" x="371" y="352" width="282" height="37" rx="9.29" ry="9.29"/><text class="cls-5" transform="translate(370.75 290.16)"><tspan class="cls-6">v</tspan><tspan x="16.27" y="0">or lau</tspan><tspan class="cls-7" x="106.75" y="0">t</tspan><tspan x="115.51" y="0">er Bäumen</tspan></text><text class="cls-8" transform="translate(381.08 377.58)">dein <tspan class="cls-9" x="38.64" y="0">N</tspan><tspan x="54.14" y="0">ame</tspan></text><text class="cls-10" transform="translate(380.9 423.58)">dein <tspan class="cls-11" x="38.64" y="0">P</tspan><tspan x="47.26" y="0">ass</tspan><tspan class="cls-12" x="71.74" y="0">w</tspan><tspan x="85.01" y="0">o</tspan><tspan class="cls-13" x="95.43" y="0">r</tspan><tspan x="101.93" y="0">t</tspan></text><circle class="cls-14" cx="347" cy="370.5" r="9"/><circle class="cls-14" cx="347" cy="415.5" r="9"/><path class="cls-15" d="M512,524a22,22,0,1,0,22,22A22,22,0,0,0,512,524Zm13.19,23.29-.19.18-8.83,7.07a2.41,2.41,0,0,1-2.83,0,1.4,1.4,0,0,1,0-2.27l5.83-4.67H499a2.2,2.2,0,0,1-1.41-.47A1.44,1.44,0,0,1,497,546a1.84,1.84,0,0,1,2-1.6h20.17l-5.83-4.67a1.4,1.4,0,0,1,0-2.27,2.42,2.42,0,0,1,2.83,0l8.83,7.07.19.18.22.16A1.44,1.44,0,0,1,526,546,1.54,1.54,0,0,1,525.19,547.29Z"/></g></svg>