<svg xmlns="http://www.w3.org/2000/svg" viewBox="0 0 1024 768"><defs><style>.cls-1,.cls-9{fill:#fff;}.cls-2,.cls-3,.cls-5{fill:#efe5b9;}.cls-2{opacity:0.6;}.cls-3{opacity:0.3;}.cls-4,.cls-51{fill:#eae4b5;}.cls-4,.cls-50{opacity:0.8;}.cls-5{opacity:0.15;}.cls-6{fill:#738280;}.cls-7{fill:#929e9c;}.cls-8{fill:#a3adab;}.cls-9{opacity:0.95;}.cls-10{font-size:20px;}.cls-10,.cls-36{fill:#3c4241;font-family:Function-Regular, Function;}.cls-11{letter-spacing:-0.04em;}.cls-12{letter-spacing:-0.03em;}.cls-13{letter-spacing:-0.05em;}.cls-14{letter-spacing:0em;}.cls-15{letter-spacing:-0.03em;}.cls-16{letter-spacing:-0.03em;}.cls-17{letter-spacing:-0.03em;}.cls-18{letter-spacing:-0.02em;}.cls-19{letter-spacing:0em;}.cls-20{letter-spacing:0em;}.cls-21{letter-spacing:0em;}.cls-22{letter-spacing:0.01em;}.cls-23{letter-spacing:-0.01em;}.cls-24{letter-spacing:-0.01em;}.cls-25{letter-spacing:0.01em;}.cls-26{letter-spacing:-0.01em;}.cls-27{letter-spacing:-0.01em;}.cls-28{letter-spacing:-0.04em;}.cls-29{letter-spacing:-0.04em;}.cls-30{letter-spacing:0.03em;}.cls-31{letter-spacing:-0.04em;}.cls-32{letter-spacing:0em;}.cls-33{letter-spacing:-0.05em;}.cls-34{letter-spacing:0em;}.cls-35{fill:#fdfbf6;}.cls-36{font-size:26px;}.cls-37{letter-spacing:-0.04em;}.cls-38{letter-spacing:-0.04em;}.cls-39{letter-spacing:-0.03em;}.cls-40{letter-spacing:0em;}.cls-41{letter-spacing:0.01em;}.cls-42{letter-spacing:-0.03em;}.cls-43{letter-spacing:0em;}.cls-44{letter-spacing:-0.02em;}.cls-45{letter-spacing:0.03em;}.cls-46{letter-spacing:0.01em;}.cls-47{letter-spacing:-0.01em;}.cls-48{letter-spacing:-0.02em;}.cls-49{letter-spacing:0.04em;}</style></defs><title>appwunsch</title><g id="Ebene_2" data-name="Ebene 2"><rect class="cls-1" width="1024" height="768"/></g><g id="Ebene_1" data-name="Ebene 1"><polyline class="cls-2" points="1024 402 0 498 0 217 1024 320"/><polyline class="cls-3" points="1024 402 0 498 1 600 1024 694"/><polyline class="cls-4" points="1024 0 0 0 0 217 1024 320"/><polyline class="cls-5" points="1024 768 0 768 1 600 1024 694"/><polygon class="cls-6" points="259.22 315.56 144 345.15 143.45 345.29 124.86 350.06 105.85 504.97 105.7 521.74 105.68 522.9 103.6 748.73 103.56 751.88 103.61 751.88 103.4 768 64.21 768 65.69 751.88 65.64 751.88 69.46 710.49 84.19 481.06 -45.99 318.94 91.08 460.07 167.07 -4.86 124.85 341.22 142.55 337.84 142.79 337.79 259.22 315.56"/><polygon class="cls-7" points="457.46 440.58 439.17 445.28 353.08 467.38 338.31 587.72 336.64 768 308.14 768 310.04 747.38 321.48 569.15 220.35 443.2 326.84 552.84 363.27 329.94 364.01 325.43 385.87 191.65 369.42 326.47 368.82 331.37 353.07 460.51 439.03 444.1 457.46 440.58"/><polygon class="cls-8" points="937.54 493.77 915.81 499.35 859.24 513.87 848.16 604.14 846.85 746.19 846.83 748.03 846.86 748.03 846.61 768 822.92 768 824.76 748.03 824.73 748.03 826.96 723.91 835.54 590.21 770.62 509.36 766.91 504.74 759.68 495.74 767.67 503.96 771.66 508.07 839.56 577.98 876.41 352.5 877.58 345.34 883.84 307.04 879.13 345.63 878.24 352.97 859.23 508.72 915.63 497.95 937.54 493.77"/><polygon class="cls-8" points="677.69 493.77 599.39 513.87 588.31 604.14 587 746.19 586.98 748.03 587.01 748.03 586.76 768 563.07 768 564.91 748.03 564.88 748.03 567.11 723.91 575.69 590.21 499.83 495.74 579.71 577.98 598.23 464.65 598.5 463.02 623.99 307.04 604.82 464.22 604.57 466.28 599.39 508.72 677.69 493.77"/><polygon class="cls-6" points="957.64 759.98 958.38 768 919.83 768 919.73 759.98 919.78 759.98 919.74 756.83 917.49 513.07 915.81 499.35 915.63 497.95 898.48 358.17 878.24 352.97 876.41 352.5 764.11 323.67 877.58 345.34 879.13 345.63 898.49 349.33 856.27 3.24 932.25 468.17 1069.33 327.04 939.15 489.16 953.88 718.59 957.7 759.98 957.64 759.98"/><polygon class="cls-6" points="486.19 748.12 488.02 768 448.52 768 448.27 748.12 448.33 748.12 448.29 744.97 446.04 501.21 439.17 445.28 439.03 444.1 427.02 346.31 368.82 331.37 363.27 329.94 292.66 311.81 364.01 325.43 369.42 326.47 427.04 337.47 384.82 -8.62 460.8 456.31 597.88 315.18 467.7 477.31 482.43 706.74 486.24 748.12 486.19 748.12"/><polygon class="cls-7" points="809.7 460.69 771.66 508.07 770.62 509.36 708.57 586.64 720.01 764.87 720.3 768 693.24 768 691.74 605.21 676.97 484.87 604.57 466.28 598.23 464.65 572.59 458.07 598.5 463.02 604.82 464.22 676.98 478 644.18 209.14 703.21 570.33 766.91 504.74 767.67 503.96 809.7 460.69"/><polygon class="cls-8" points="198.67 748.52 200.46 768 178.74 768 177.46 628.75 166.38 538.48 105.68 522.9 88.08 518.38 105.7 521.74 166.39 533.33 143.45 345.29 142.55 337.84 141.79 331.65 142.79 337.79 144 345.15 186.06 602.59 265.95 520.35 190.08 614.82 198.67 748.52"/><rect class="cls-9" x="353.54" y="155.96" width="145" height="31" rx="15.5" ry="15.5"/><rect class="cls-9" x="729.29" y="97.35" width="213" height="31" rx="15.5" ry="15.5"/><rect class="cls-9" x="791.8" y="265.45" width="180" height="31" rx="14.25" ry="14.25"/><rect class="cls-9" x="531.15" y="674.4" width="194" height="31" rx="14.79" ry="14.79"/><rect class="cls-9" x="137.83" y="608.25" width="279" height="31" rx="15.5" ry="15.5"/><rect class="cls-9" x="247.02" y="400.69" width="229" height="31" rx="15.5" ry="15.5"/><rect class="cls-9" x="589.91" y="360.5" width="204" height="31" rx="14.63" ry="14.63"/><rect class="cls-9" x="120.28" y="239.51" width="211" height="31" rx="15.5" ry="15.5"/><text class="cls-10" transform="translate(371.62 176.99) rotate(0.37)"><tspan class="cls-11">P</tspan><tspan x="8.26" y="0">ADDE</tspan><tspan class="cls-11" x="55.62" y="0">L</tspan><tspan class="cls-12" x="61.89" y="0">T</tspan><tspan x="69.77" y="0">OUR</tspan></text><text class="cls-10" transform="translate(602.71 381.84)">AN DEN SEE <tspan class="cls-13" x="110" y="0">F</tspan><tspan class="cls-14" x="117.72" y="0">AHREN</tspan></text><text class="cls-10" transform="translate(542.69 695.74)">F<tspan class="cls-15" x="8.66" y="0">O</tspan><tspan class="cls-16" x="23.86" y="0">T</tspan><tspan class="cls-17" x="31.74" y="0">O</tspan><tspan x="47.02" y="0">ALBEN KLEBEN</tspan></text><text class="cls-10" transform="translate(143.75 629.59)"><tspan class="cls-18">A</tspan><tspan x="11.96" y="0">US</tspan><tspan class="cls-19" x="35.28" y="0">S</tspan><tspan class="cls-20" x="45.71" y="0">TEL</tspan><tspan class="cls-18" x="71.01" y="0">L</tspan><tspan class="cls-21" x="77.73" y="0">U</tspan><tspan class="cls-22" x="90.71" y="0">N</tspan><tspan x="106.16" y="0">G IM G</tspan><tspan class="cls-23" x="168.7" y="0">R</tspan><tspan x="178.48" y="0">OPIUS</tspan><tspan class="cls-24" x="231.78" y="0">B</tspan><tspan class="cls-18" x="242.22" y="0">A</tspan><tspan x="254.17" y="0">U</tspan></text><text class="cls-10" transform="translate(802.78 286.79)">K<tspan class="cls-18" x="11.38" y="0">L</tspan><tspan x="18.1" y="0">UNKERKRANI</tspan><tspan class="cls-25" x="131.59" y="0">C</tspan><tspan x="144.79" y="0">H</tspan></text><text class="cls-10" transform="translate(737.59 118.68)"><tspan class="cls-26">S</tspan><tspan x="10.16" y="0">AL</tspan><tspan class="cls-27" x="29.72" y="0">S</tspan><tspan x="39.88" y="0">A </tspan><tspan class="cls-28" x="57.28" y="0">T</tspan><tspan x="64.96" y="0">ANZEN GEHEN</tspan></text><text class="cls-10" transform="translate(257.33 422.03)">M<tspan class="cls-18" x="17.26" y="0">A</tspan><tspan class="cls-21" x="29.22" y="0">UER</tspan><tspan class="cls-11" x="61.88" y="0">P</tspan><tspan x="70.13" y="0">ARKF</tspan><tspan class="cls-29" x="112.61" y="0">L</tspan><tspan x="119.03" y="0">OHMAR</tspan><tspan class="cls-30" x="187.87" y="0">K</tspan><tspan class="cls-14" x="199.89" y="0">T</tspan></text><text class="cls-10" transform="translate(130.47 260.85)"><tspan class="cls-31">K</tspan><tspan class="cls-20" x="10.52" y="0">OSMO</tspan><tspan class="cls-32" x="69.88" y="0">N</tspan><tspan class="cls-18" x="85.27" y="0">A</tspan><tspan x="97.23" y="0">UTFE</tspan><tspan class="cls-19" x="137.01" y="0">S</tspan><tspan x="147.45" y="0">TI</tspan><tspan class="cls-33" x="160.91" y="0">V</tspan><tspan class="cls-34" x="171.06" y="0">AL</tspan></text><polygon class="cls-6" points="259.22 315.56 144 345.15 143.45 345.29 124.86 350.06 105.85 504.97 105.7 521.74 105.68 522.9 103.6 748.73 103.56 751.88 103.61 751.88 103.4 768 64.21 768 65.69 751.88 65.64 751.88 69.46 710.49 84.19 481.06 -45.99 318.94 91.08 460.07 167.07 -4.86 124.85 341.22 142.55 337.84 142.79 337.79 259.22 315.56"/><polygon class="cls-7" points="457.46 440.58 439.17 445.28 353.08 467.38 338.31 587.72 336.64 768 308.14 768 310.04 747.38 321.48 569.15 220.35 443.2 326.84 552.84 363.27 329.94 364.01 325.43 385.87 191.65 369.42 326.47 368.82 331.37 353.07 460.51 439.03 444.1 457.46 440.58"/><polygon class="cls-8" points="937.54 493.77 915.81 499.35 859.24 513.87 848.16 604.14 846.85 746.19 846.83 748.03 846.86 748.03 846.61 768 822.92 768 824.76 748.03 824.73 748.03 826.96 723.91 835.54 590.21 770.62 509.36 766.91 504.74 759.68 495.74 767.67 503.96 771.66 508.07 839.56 577.98 876.41 352.5 877.58 345.34 883.84 307.04 879.13 345.63 878.24 352.97 859.23 508.72 915.63 497.95 937.54 493.77"/><polygon class="cls-8" points="677.69 493.77 599.39 513.87 588.31 604.14 587 746.19 586.98 748.03 587.01 748.03 586.76 768 563.07 768 564.91 748.03 564.88 748.03 567.11 723.91 575.69 590.21 499.83 495.74 579.71 577.98 598.23 464.65 598.5 463.02 623.99 307.04 604.82 464.22 604.57 466.28 599.39 508.72 677.69 493.77"/><polygon class="cls-6" points="957.64 759.98 958.38 768 919.83 768 919.73 759.98 919.78 759.98 919.74 756.83 917.49 513.07 915.81 499.35 915.63 497.95 898.48 358.17 878.24 352.97 876.41 352.5 764.11 323.67 877.58 345.34 879.13 345.63 898.49 349.33 856.27 3.24 932.25 468.17 1069.33 327.04 939.15 489.16 953.88 718.59 957.7 759.98 957.64 759.98"/><polygon class="cls-6" points="486.19 748.12 488.02 768 448.52 768 448.27 748.12 448.33 748.12 448.29 744.97 446.04 501.21 439.17 445.28 439.03 444.1 427.02 346.31 368.82 331.37 363.27 329.94 292.66 311.81 364.01 325.43 369.42 326.47 427.04 337.47 384.82 -8.62 460.8 456.31 597.88 315.18 467.7 477.31 482.43 706.74 486.24 748.12 486.19 748.12"/><polygon class="cls-7" points="809.7 460.69 771.66 508.07 770.62 509.36 708.57 586.64 720.01 764.87 720.3 768 693.24 768 691.74 605.21 676.97 484.87 604.57 466.28 598.23 464.65 572.59 458.07 598.5 463.02 604.82 464.22 676.98 478 644.18 209.14 703.21 570.33 766.91 504.74 767.67 503.96 809.7 460.69"/><polygon class="cls-8" points="198.67 748.52 200.46 768 178.74 768 177.46 628.75 166.38 538.48 105.68 522.9 88.08 518.38 105.7 521.74 166.39 533.33 143.45 345.29 142.55 337.84 141.79 331.65 142.79 337.79 144 345.15 186.06 602.59 265.95 520.35 190.08 614.82 198.67 748.52"/><rect class="cls-9" x="353.54" y="155.96" width="145" height="31" rx="8.44" ry="8.44"/><rect class="cls-9" x="729.29" y="97.35" width="213" height="31" rx="6.43" ry="6.43"/><rect class="cls-9" x="791.8" y="265.45" width="180" height="31" rx="6.68" ry="6.68"/><rect class="cls-9" x="531.15" y="674.4" width="194" height="31" rx="7.02" ry="7.02"/><rect class="cls-9" x="137.83" y="608.25" width="279" height="31" rx="7.18" ry="7.18"/><rect class="cls-9" x="247.02" y="400.69" width="229" height="31" rx="6.94" ry="6.94"/><rect class="cls-9" x="589.91" y="360.5" width="204" height="31" rx="7.19" ry="7.19"/><rect class="cls-9" x="120.28" y="239.51" width="211" height="31" rx="7.4" ry="7.4"/><text class="cls-10" transform="translate(371.62 176.99) rotate(0.37)"><tspan class="cls-11">P</tspan><tspan x="8.26" y="0">ADDE</tspan><tspan class="cls-11" x="55.62" y="0">L</tspan><tspan class="cls-12" x="61.89" y="0">T</tspan><tspan x="69.77" y="0">OUR</tspan></text><text class="cls-10" transform="translate(602.71 381.84)">AN DEN SEE <tspan class="cls-13" x="110" y="0">F</tspan><tspan class="cls-14" x="117.72" y="0">AHREN</tspan></text><text class="cls-10" transform="translate(542.69 695.74)">F<tspan class="cls-15" x="8.66" y="0">O</tspan><tspan class="cls-16" x="23.86" y="0">T</tspan><tspan class="cls-17" x="31.74" y="0">O</tspan><tspan x="47.02" y="0">ALBEN KLEBEN</tspan></text><text class="cls-10" transform="translate(143.75 629.59)"><tspan class="cls-18">A</tspan><tspan x="11.96" y="0">US</tspan><tspan class="cls-19" x="35.28" y="0">S</tspan><tspan class="cls-20" x="45.71" y="0">TEL</tspan><tspan class="cls-18" x="71.01" y="0">L</tspan><tspan class="cls-21" x="77.73" y="0">U</tspan><tspan class="cls-22" x="90.71" y="0">N</tspan><tspan x="106.16" y="0">G IM G</tspan><tspan class="cls-23" x="168.7" y="0">R</tspan><tspan x="178.48" y="0">OPIUS</tspan><tspan class="cls-24" x="231.78" y="0">B</tspan><tspan class="cls-18" x="242.22" y="0">A</tspan><tspan x="254.17" y="0">U</tspan></text><text class="cls-10" transform="translate(802.78 286.79)">K<tspan class="cls-18" x="11.38" y="0">L</tspan><tspan x="18.1" y="0">UNKERKRANI</tspan><tspan class="cls-25" x="131.59" y="0">C</tspan><tspan x="144.79" y="0">H</tspan></text><text class="cls-10" transform="translate(737.59 118.68)"><tspan class="cls-26">S</tspan><tspan x="10.16" y="0">AL</tspan><tspan class="cls-27" x="29.72" y="0">S</tspan><tspan x="39.88" y="0">A </tspan><tspan class="cls-28" x="57.28" y="0">T</tspan><tspan x="64.96" y="0">ANZEN GEHEN</tspan></text><text class="cls-10" transform="translate(257.33 422.03)">M<tspan class="cls-18" x="17.26" y="0">A</tspan><tspan class="cls-21" x="29.22" y="0">UER</tspan><tspan class="cls-11" x="61.88" y="0">P</tspan><tspan x="70.13" y="0">ARKF</tspan><tspan class="cls-29" x="112.61" y="0">L</tspan><tspan x="119.03" y="0">OHMAR</tspan><tspan class="cls-30" x="187.87" y="0">K</tspan><tspan class="cls-14" x="199.89" y="0">T</tspan></text><text class="cls-10" transform="translate(130.47 260.85)"><tspan class="cls-31">K</tspan><tspan class="cls-20" x="10.52" y="0">OSMO</tspan><tspan class="cls-32" x="69.88" y="0">N</tspan><tspan class="cls-18" x="85.27" y="0">A</tspan><tspan x="97.23" y="0">UTFE</tspan><tspan class="cls-19" x="137.01" y="0">S</tspan><tspan x="147.45" y="0">TI</tspan><tspan class="cls-33" x="160.91" y="0">V</tspan><tspan class="cls-34" x="171.06" y="0">AL</tspan></text><rect class="cls-35" x="839" y="24" width="61" height="61" rx="15.52" ry="15.52"/><path class="cls-6" d="M874,70.38h0a4.62,4.62,0,0,1-9.23.25,2.17,2.17,0,0,1,0-.26,4.62,4.62,0,1,1,9.24,0Z"/><path class="cls-6" d="M884.08,62.4c-.79.79-6.44.84-14.28.84s-15.45.16-16-.84c-.84-1.68,3-2.89,3-3.9.36-16.52,5.43-17.94,9.63-18.78.51-.1,2-6.72,2.52-6.72.87,0,1.74,6.58,2.52,6.72,5.28.93,9.42,2.46,10.6,19C882.13,59.62,884.92,61.56,884.08,62.4Z"/><rect class="cls-35" x="929" y="24" width="62" height="61" rx="15.77" ry="15.77"/><path class="cls-6" d="M967.63,69.61a5,5,0,0,1-1.1,3.19,3.47,3.47,0,0,1-2.65,1.32h-6.76c-2.07,0-3.76-2-3.76-4.51a5,5,0,0,1,1.1-3.19,3.47,3.47,0,0,1,2.65-1.32h6.76C965.95,65.1,967.63,67.13,967.63,69.61Z"/><path class="cls-6" d="M986,55a5.15,5.15,0,0,1-1.1,3.24,3.45,3.45,0,0,1-2.65,1.35h-6.76c-2.07,0-3.76-2.07-3.76-4.59a5.15,5.15,0,0,1,1.1-3.24,3.45,3.45,0,0,1,2.65-1.35h6.76C984.31,50.41,986,52.47,986,55Z"/><path class="cls-6" d="M967.63,40.39a5,5,0,0,1-1.1,3.19,3.47,3.47,0,0,1-2.65,1.32h-6.76c-2.07,0-3.76-2-3.76-4.51a5,5,0,0,1,1.1-3.19,3.47,3.47,0,0,1,2.65-1.32h6.76C965.95,35.88,967.63,37.91,967.63,40.39Z"/><path class="cls-6" d="M967.63,55a5.15,5.15,0,0,1-1.1,3.24,3.45,3.45,0,0,1-2.65,1.35h-6.76c-2.07,0-3.76-2.07-3.76-4.59a5.15,5.15,0,0,1,1.1-3.24,3.45,3.45,0,0,1,2.65-1.35h6.76C965.95,50.41,967.63,52.47,967.63,55Z"/><path class="cls-6" d="M949.27,55a5.15,5.15,0,0,1-1.1,3.24,3.45,3.45,0,0,1-2.65,1.35h-6.76c-2.07,0-3.76-2.07-3.76-4.59a5.15,5.15,0,0,1,1.1-3.24,3.45,3.45,0,0,1,2.65-1.35h6.76C947.58,50.41,949.27,52.47,949.27,55Z"/><rect class="cls-35" x="35" y="26" width="61" height="61" rx="15.52" ry="15.52"/><path class="cls-6" d="M85.44,53.8a2.49,2.49,0,0,1,2.49,2.49,2.49,2.49,0,0,1-2.49,2.49H68v17.4a2.49,2.49,0,0,1-2.49,2.49,2.49,2.49,0,0,1-2.49-2.49V58.77H45.66a2.49,2.49,0,0,1,0-5h17.4V36.39a2.49,2.49,0,1,1,5,0V53.8Z"/><rect class="cls-1" x="627.69" y="176" width="358.27" height="546" rx="15.53" ry="15.53"/><text class="cls-36" transform="translate(742.77 227.43)"><tspan class="cls-37">P</tspan><tspan x="10.73" y="0">ADDE</tspan><tspan class="cls-38" x="72.3" y="0">L</tspan><tspan class="cls-39" x="80.46" y="0">T</tspan><tspan class="cls-40" x="90.7" y="0">OUR</tspan></text><text class="cls-10" transform="translate(671.45 293.08)">Sobald die Digi<tspan class="cls-19" x="122.08" y="0">t</tspan><tspan x="126.46" y="0">ale-Medien-P</tspan><tspan class="cls-26" x="227.59" y="0">r</tspan><tspan x="233.31" y="0">äsen</tspan><tspan class="cls-19" x="269.79" y="0">t</tspan><tspan x="274.17" y="0">a</tspan><tspan x="284.65" y="0">-</tspan><tspan x="0" y="24">tion du</tspan><tspan class="cls-23" x="53.02" y="24">r</tspan><tspan class="cls-41" x="58.66" y="24">c</tspan><tspan x="67.55" y="24">h i</tspan><tspan class="cls-41" x="86.09" y="24">s</tspan><tspan x="93.29" y="24">t, </tspan><tspan class="cls-41" x="107.11" y="24">s</tspan><tspan class="cls-19" x="114.3" y="24">t</tspan><tspan x="118.68" y="24">eht eine </tspan><tspan class="cls-42" x="184.74" y="24">P</tspan><tspan x="193.36" y="24">addel</tspan><tspan class="cls-43" x="238.55" y="24">t</tspan><tspan x="242.87" y="24">our </tspan><tspan x="0" y="48">an. Mia </tspan><tspan class="cls-44" x="66.3" y="48">k</tspan><tspan x="74.3" y="48">au</tspan><tspan class="cls-45" x="94.08" y="48">f</tspan><tspan x="99.48" y="48">t Lebensmit</tspan><tspan class="cls-19" x="184.06" y="48">t</tspan><tspan x="188.43" y="48">el, Louis holt </tspan><tspan x="0" y="72">das Bo</tspan><tspan class="cls-43" x="53.98" y="72">o</tspan><tspan x="64.44" y="72">t ab, Ma</tspan><tspan class="cls-46" x="131.96" y="72">r</tspan><tspan x="138.01" y="72">ia nimmt das Zelt </tspan><tspan x="0" y="96">mit. Di</tspan><tspan class="cls-47" x="48.4" y="96">r</tspan><tspan x="54.1" y="96">ekt </tspan><tspan class="cls-48" x="81.42" y="96">v</tspan><tspan x="89.56" y="96">om H</tspan><tspan class="cls-49" x="131.84" y="96">T</tspan><tspan class="cls-43" x="141.13" y="96">W</tspan><tspan x="160.27" y="96">-Ca</tspan><tspan class="cls-19" x="187.29" y="96">m</tspan><tspan x="200.99" y="96">pus </tspan><tspan class="cls-22" x="232.77" y="96">g</tspan><tspan x="243.38" y="96">ehts </tspan><tspan x="0" y="120">los auf der Sp</tspan><tspan class="cls-47" x="107.94" y="120">r</tspan><tspan x="113.64" y="120">ee!</tspan></text><rect class="cls-4" x="896.9" y="634.31" width="60.69" height="60.69" rx="18.21" ry="18.21"/><path class="cls-1" d="M943.52,653.08l-17.69,25.45a2.71,2.71,0,0,1-3.76.67,2.5,2.5,0,0,1-.73-.76l-9.81-9.82a2.69,2.69,0,0,1,3.81-3.81l7.94,7.95L939.1,650a2.69,2.69,0,1,1,4.42,3.07Z"/><g class="cls-50"><rect class="cls-51" x="805" y="634" width="61" height="61" rx="15.52" ry="15.52"/></g><path class="cls-1" d="M842,652.69l5.15,5.15-19.91,19.89c-1.41,1.43-9.78,5.67-10.29,5.15s3.73-8.86,5.15-10.29Z"/><path class="cls-1" d="M850.93,648.9a3.62,3.62,0,0,1,0,5.15l-2,2-5.14-5.13,2-2A3.62,3.62,0,0,1,850.93,648.9Z"/></g></svg>