<svg id="Ebene_1" data-name="Ebene 1" xmlns="http://www.w3.org/2000/svg" xmlns:xlink="http://www.w3.org/1999/xlink" viewBox="0 0 566.93 435.03"><defs><style>.cls-1,.cls-154,.cls-28,.cls-29,.cls-30,.cls-35,.cls-64{fill:none;}.cls-111,.cls-116,.cls-123,.cls-128,.cls-129,.cls-135,.cls-2{fill:#fff;}.cls-3{clip-path:url(#clip-path);}.cls-17,.cls-21,.cls-26,.cls-4,.cls-43,.cls-87{fill:#3d4341;}.cls-5{clip-path:url(#clip-path-2);}.cls-6{opacity:0.7;}.cls-7{clip-path:url(#clip-path-3);}.cls-8{fill:#efe5b9;}.cls-9{opacity:0.4;}.cls-10{clip-path:url(#clip-path-4);}.cls-11{fill:#e9e4b5;}.cls-12{opacity:0.15;}.cls-13{clip-path:url(#clip-path-6);}.cls-14{fill:#738280;}.cls-15{fill:#939f9c;}.cls-16{fill:#a3adab;}.cls-17{font-size:4.24px;}.cls-111,.cls-116,.cls-118,.cls-119,.cls-120,.cls-121,.cls-122,.cls-123,.cls-124,.cls-128,.cls-129,.cls-135,.cls-136,.cls-17,.cls-21,.cls-26,.cls-43,.cls-87{font-family:Function-Regular, Function;}.cls-18{letter-spacing:0.01em;}.cls-19{letter-spacing:0em;}.cls-20{letter-spacing:-0.01em;}.cls-119,.cls-120,.cls-121,.cls-122,.cls-123,.cls-128,.cls-129,.cls-135,.cls-21,.cls-43{font-size:3.69px;}.cls-22{letter-spacing:0.01em;}.cls-23{letter-spacing:-0.03em;}.cls-24{letter-spacing:-0.02em;}.cls-25{letter-spacing:-0.04em;}.cls-26{font-size:4.8px;}.cls-27{letter-spacing:-0.01em;}.cls-28,.cls-35,.cls-64{stroke:#738280;}.cls-154,.cls-28,.cls-35{stroke-linecap:round;}.cls-154,.cls-28,.cls-29,.cls-30,.cls-35,.cls-64{stroke-miterlimit:10;}.cls-154,.cls-28,.cls-29,.cls-30,.cls-64{stroke-width:0.37px;}.cls-29{stroke:#a3adab;}.cls-30{stroke:#939f9c;}.cls-31{clip-path:url(#clip-path-9);}.cls-32{clip-path:url(#clip-path-10);}.cls-33{clip-path:url(#clip-path-11);}.cls-34{clip-path:url(#clip-path-13);}.cls-35{stroke-width:0.35px;}.cls-36{letter-spacing:0.01em;}.cls-37{letter-spacing:0em;}.cls-38{letter-spacing:-0.04em;}.cls-39{letter-spacing:-0.03em;}.cls-40{letter-spacing:-0.02em;}.cls-41{letter-spacing:-0.03em;}.cls-42{letter-spacing:-0.03em;}.cls-43{letter-spacing:0.04em;}.cls-44{letter-spacing:0em;}.cls-45{letter-spacing:-0.03em;}.cls-46{letter-spacing:-0.02em;}.cls-47{letter-spacing:-0.04em;}.cls-48{letter-spacing:-0.04em;}.cls-49{letter-spacing:-0.02em;}.cls-50{letter-spacing:0em;}.cls-51{letter-spacing:-0.01em;}.cls-52{clip-path:url(#clip-path-15);}.cls-53{clip-path:url(#clip-path-16);}.cls-54{clip-path:url(#clip-path-17);}.cls-55{clip-path:url(#clip-path-19);}.cls-56{letter-spacing:0.01em;}.cls-57{letter-spacing:0em;}.cls-58{letter-spacing:-0.04em;}.cls-59{letter-spacing:0.01em;}.cls-60{letter-spacing:0em;}.cls-61{letter-spacing:-0.04em;}.cls-62{letter-spacing:-0.03em;}.cls-63{letter-spacing:-0.01em;}.cls-65{clip-path:url(#clip-path-22);}.cls-66{opacity:0.6;}.cls-67{clip-path:url(#clip-path-23);}.cls-68{opacity:0.3;}.cls-69{clip-path:url(#clip-path-24);}.cls-70{opacity:0.8;}.cls-71{clip-path:url(#clip-path-25);}.cls-72{clip-path:url(#clip-path-26);}.cls-73{opacity:0.95;}.cls-74{clip-path:url(#clip-path-28);}.cls-75{clip-path:url(#clip-path-29);}.cls-76{clip-path:url(#clip-path-30);}.cls-77{clip-path:url(#clip-path-31);}.cls-78{clip-path:url(#clip-path-32);}.cls-79{clip-path:url(#clip-path-34);}.cls-80{clip-path:url(#clip-path-36);}.cls-81{clip-path:url(#clip-path-37);}.cls-82{clip-path:url(#clip-path-38);}.cls-83{clip-path:url(#clip-path-39);}.cls-84{clip-path:url(#clip-path-40);}.cls-85{clip-path:url(#clip-path-42);}.cls-86{clip-path:url(#clip-path-43);}.cls-87{font-size:3.69px;}.cls-88{letter-spacing:-0.04em;}.cls-89{letter-spacing:-0.03em;}.cls-90{letter-spacing:-0.05em;}.cls-91{letter-spacing:-0.03em;}.cls-92{letter-spacing:-0.03em;}.cls-93{letter-spacing:-0.02em;}.cls-94{letter-spacing:0em;}.cls-95{letter-spacing:0em;}.cls-119,.cls-135,.cls-96{letter-spacing:-0.02em;}.cls-97{letter-spacing:0em;}.cls-98{letter-spacing:-0.01em;}.cls-99{letter-spacing:-0.01em;}.cls-100{letter-spacing:-0.01em;}.cls-101{letter-spacing:-0.04em;}.cls-102{letter-spacing:0em;}.cls-103{letter-spacing:-0.04em;}.cls-104{letter-spacing:-0.04em;}.cls-105{letter-spacing:0.03em;}.cls-106{letter-spacing:0em;}.cls-107{letter-spacing:-0.05em;}.cls-108{fill:#fdfcf7;}.cls-109{clip-path:url(#clip-path-63);}.cls-110,.cls-119,.cls-120,.cls-121{fill:#6a6a69;}.cls-111{font-size:12.92px;}.cls-112{letter-spacing:-0.03em;}.cls-113,.cls-118,.cls-122{fill:#c5c5c0;}.cls-114{fill:#d1ce90;}.cls-115,.cls-124,.cls-136{fill:#c4b76a;}.cls-116,.cls-118{font-size:5.54px;}.cls-117{letter-spacing:-0.01em;}.cls-121{letter-spacing:-0.09em;}.cls-124{font-size:7.38px;}.cls-125{letter-spacing:-0.05em;}.cls-126{letter-spacing:-0.14em;}.cls-127{letter-spacing:-0.08em;}.cls-128{letter-spacing:-0.07em;}.cls-129{letter-spacing:-0.07em;}.cls-130{letter-spacing:-0.08em;}.cls-131{letter-spacing:-0.07em;}.cls-132{letter-spacing:-0.09em;}.cls-133{letter-spacing:-0.07em;}.cls-134{letter-spacing:-0.08em;}.cls-136{font-size:9.23px;}.cls-137{letter-spacing:-0.02em;}.cls-138{letter-spacing:0.01em;}.cls-139{letter-spacing:-0.07em;}.cls-140{letter-spacing:-0.03em;}.cls-141{letter-spacing:0em;}.cls-142{letter-spacing:0.01em;}.cls-143{letter-spacing:0.01em;}.cls-144{letter-spacing:0.01em;}.cls-145{letter-spacing:-0.02em;}.cls-146{letter-spacing:0em;}.cls-147{letter-spacing:0em;}.cls-148{letter-spacing:-0.01em;}.cls-149{letter-spacing:0em;}.cls-150{letter-spacing:-0.01em;}.cls-151{letter-spacing:-0.02em;}.cls-152{letter-spacing:0em;}.cls-153{letter-spacing:0.01em;}.cls-154{stroke:#c4b76a;}</style><clipPath id="clip-path" transform="translate(0 -83.58)"><rect class="cls-1" y="83.58" width="566.93" height="436.17"/></clipPath><clipPath id="clip-path-2" transform="translate(0 -83.58)"><rect class="cls-1" y="228.97" width="188.98" height="145.39"/></clipPath><clipPath id="clip-path-3" transform="translate(0 -83.58)"><rect class="cls-1" y="280.08" width="188.98" height="53.2"/></clipPath><clipPath id="clip-path-4" transform="translate(0 -83.58)"><rect class="cls-1" y="242.98" width="188.98" height="55.28"/></clipPath><clipPath id="clip-path-6" transform="translate(0 -83.58)"><rect class="cls-1" y="228.97" width="188.98" height="31.8"/></clipPath><clipPath id="clip-path-9" transform="translate(0 -83.58)"><rect class="cls-1" x="377.95" y="228.97" width="188.98" height="145.39"/></clipPath><clipPath id="clip-path-10" transform="translate(0 -83.58)"><rect class="cls-1" x="377.95" y="280.08" width="188.98" height="53.2"/></clipPath><clipPath id="clip-path-11" transform="translate(0 -83.58)"><rect class="cls-1" x="377.95" y="242.98" width="188.98" height="55.28"/></clipPath><clipPath id="clip-path-13" transform="translate(0 -83.58)"><rect class="cls-1" x="377.95" y="228.97" width="188.98" height="31.8"/></clipPath><clipPath id="clip-path-15" transform="translate(0 -83.58)"><rect class="cls-1" x="188.98" y="228.97" width="188.98" height="145.39"/></clipPath><clipPath id="clip-path-16" transform="translate(0 -83.58)"><rect class="cls-1" x="188.98" y="280.08" width="188.98" height="53.2"/></clipPath><clipPath id="clip-path-17" transform="translate(0 -83.58)"><rect class="cls-1" x="188.98" y="242.98" width="188.98" height="55.28"/></clipPath><clipPath id="clip-path-19" transform="translate(0 -83.58)"><rect class="cls-1" x="188.98" y="228.97" width="188.98" height="31.8"/></clipPath><clipPath id="clip-path-22" transform="translate(0 -83.58)"><rect class="cls-1" x="188.98" y="83.58" width="188.98" height="145.39"/></clipPath><clipPath id="clip-path-23" transform="translate(0 -83.58)"><rect class="cls-1" x="188.98" y="124.66" width="188.98" height="53.2"/></clipPath><clipPath id="clip-path-24" transform="translate(0 -83.58)"><rect class="cls-1" x="188.98" y="159.68" width="188.98" height="55.28"/></clipPath><clipPath id="clip-path-25" transform="translate(0 -83.58)"><rect class="cls-1" x="188.98" y="83.58" width="188.98" height="60.58"/></clipPath><clipPath id="clip-path-26" transform="translate(0 -83.58)"><rect class="cls-1" x="188.98" y="197.17" width="188.98" height="31.8"/></clipPath><clipPath id="clip-path-28" transform="translate(0 -83.58)"><rect class="cls-1" x="254.22" y="113.11" width="26.76" height="5.87"/></clipPath><clipPath id="clip-path-29" transform="translate(0 -83.58)"><rect class="cls-1" x="254.22" y="113.11" width="26.76" height="5.87"/></clipPath><clipPath id="clip-path-30" transform="translate(0 -83.58)"><rect class="cls-1" x="323.57" y="102.01" width="39.31" height="5.87"/></clipPath><clipPath id="clip-path-31" transform="translate(0 -83.58)"><rect class="cls-1" x="323.57" y="102.01" width="39.31" height="5.87"/></clipPath><clipPath id="clip-path-32" transform="translate(0 -83.58)"><rect class="cls-1" x="335.1" y="133.83" width="33.22" height="5.87"/></clipPath><clipPath id="clip-path-34" transform="translate(0 -83.58)"><rect class="cls-1" x="287" y="211.25" width="35.8" height="5.87"/></clipPath><clipPath id="clip-path-36" transform="translate(0 -83.58)"><rect class="cls-1" x="214.41" y="198.73" width="51.49" height="5.87"/></clipPath><clipPath id="clip-path-37" transform="translate(0 -83.58)"><rect class="cls-1" x="214.41" y="198.73" width="51.49" height="5.87"/></clipPath><clipPath id="clip-path-38" transform="translate(0 -83.58)"><rect class="cls-1" x="234.56" y="159.44" width="42.26" height="5.87"/></clipPath><clipPath id="clip-path-39" transform="translate(0 -83.58)"><rect class="cls-1" x="234.56" y="159.44" width="42.26" height="5.87"/></clipPath><clipPath id="clip-path-40" transform="translate(0 -83.58)"><rect class="cls-1" x="297.84" y="151.83" width="37.65" height="5.87"/></clipPath><clipPath id="clip-path-42" transform="translate(0 -83.58)"><rect class="cls-1" x="211.17" y="128.92" width="38.94" height="5.87"/></clipPath><clipPath id="clip-path-43" transform="translate(0 -83.58)"><rect class="cls-1" x="211.17" y="128.92" width="38.94" height="5.87"/></clipPath><clipPath id="clip-path-63" transform="translate(0 -83.58)"><rect class="cls-1" x="188.98" y="374.36" width="188.98" height="145.39"/></clipPath></defs><title>website</title><rect class="cls-2" x="187.74" y="144.44" width="191.45" height="147.3"/><rect class="cls-2" x="187.74" width="191.45" height="147.3"/><rect class="cls-2" x="375.19" y="144.44" width="191.45" height="147.3"/><rect class="cls-2" y="144.44" width="191.45" height="147.3"/><g class="cls-3"><rect class="cls-4" x="188.45" y="287.73" width="191.45" height="147.3"/><g class="cls-5"><g class="cls-6"><g class="cls-7"><polygon class="cls-8" points="188.98 249.7 0 230.2 0 214.68 188.98 196.5 188.98 249.7"/></g></g><g class="cls-9"><g class="cls-10"><polygon class="cls-8" points="0 214.68 0 159.4 188.79 177.19 188.98 196.5 0 214.68"/></g></g></g><polygon class="cls-11" points="0 290.78 0 230.2 188.98 249.7 188.98 290.78 0 290.78"/><g class="cls-5"><g class="cls-12"><g class="cls-13"><polygon class="cls-8" points="188.79 177.19 0 159.4 0 145.39 188.98 145.39 188.79 177.19"/></g></g></g><polygon class="cls-14" points="33.12 277.87 33.12 238.04 26.15 188.25 35.65 145.39 52.94 145.39 51.93 178.29 55.01 238.04 52.95 277.87 33.12 277.87"/><polygon class="cls-15" points="84.29 243.37 84.29 211.07 78.65 170.71 84.25 145.39 100.04 145.39 99.51 162.63 102.01 211.07 100.34 243.37 84.29 243.37"/><polygon class="cls-16" points="142.37 211.66 142.37 189.26 138.91 161.26 142.02 145.39 151.98 145.39 151.7 155.66 153.23 189.26 152.21 211.66 142.37 211.66"/><polygon class="cls-16" points="10.35 211.86 10.35 189.4 6.89 161.31 10 145.39 19.96 145.39 19.68 155.69 21.21 189.4 20.19 211.86 10.35 211.86"/><polygon class="cls-16" points="60.08 203.81 59.06 184.06 60.59 154.43 60.31 145.39 70.27 145.39 73.37 159.37 69.92 184.06 69.92 203.81 60.08 203.81"/><polygon class="cls-15" points="160.03 247.97 158 214.16 161.05 163.44 160.41 145.39 179.74 145.39 186.6 171.9 179.69 214.16 179.69 247.97 160.03 247.97"/><polygon class="cls-14" points="109.67 277.87 107.62 238.04 110.69 178.29 109.69 145.39 126.97 145.39 136.47 188.25 129.5 238.04 129.5 277.87 109.67 277.87"/><g class="cls-5"><text class="cls-17" transform="translate(155.02 253.87) scale(1 1.03)">WILMERSDORF</text><text class="cls-17" transform="translate(75.81 248.67) scale(1 1.03)">LI<tspan class="cls-18" x="2.57" y="0">C</tspan><tspan class="cls-19" x="5.37" y="0">HTENBE</tspan><tspan class="cls-20" x="19.58" y="0">R</tspan><tspan x="21.66" y="0">G</tspan></text><text class="cls-21" transform="translate(136.73 215.45) scale(1 1.03)">WEDDI<tspan class="cls-22" x="10.89" y="0">N</tspan><tspan x="13.74" y="0">G</tspan></text><text class="cls-21" transform="translate(59.07 208.63) scale(1 1.03)">TREP<tspan class="cls-23" x="6.89" y="0">T</tspan><tspan class="cls-24" x="8.34" y="0">O</tspan><tspan x="11.2" y="0">W</tspan></text><text class="cls-21" transform="translate(7.58 217.33) scale(1 1.03)">NEU<tspan class="cls-25" x="7.01" y="0">K</tspan><tspan x="8.95" y="0">ÖLLN</tspan></text><text class="cls-26" transform="translate(32.65 283.74) scale(1 1.03)">KREUZBE<tspan class="cls-27" x="17.98" y="0">R</tspan><tspan x="20.33" y="0">G</tspan></text><text class="cls-26" transform="translate(105.26 283.74) scale(1 1.03)">TEMPELHOF</text></g><line class="cls-28" x1="128.81" y1="285.1" x2="105.56" y2="285.1"/><line class="cls-28" x1="55.92" y1="285.1" x2="32.66" y2="285.1"/><line class="cls-29" x1="152.25" y1="217.33" x2="137.12" y2="217.33"/><line class="cls-29" x1="73.82" y1="210.13" x2="58.69" y2="210.13"/><line class="cls-29" x1="25.1" y1="219.03" x2="7.2" y2="219.03"/><line class="cls-30" x1="179.75" y1="255.57" x2="155.02" y2="255.57"/><line class="cls-30" x1="100.58" y1="250.27" x2="75.85" y2="250.27"/><g class="cls-5"><path class="cls-11" d="M181.78,237.07v5.58a3,3,0,0,1-2.91,3h-5.62a3,3,0,0,1-2.91-3v-5.58a3,3,0,0,1,2.91-3h5.62a3,3,0,0,1,2.91,3" transform="translate(0 -83.58)"/><path class="cls-14" d="M177.47,242.72a1,1,0,0,1-.2.6.64.64,0,0,1-.49.25h-1.25a.79.79,0,0,1-.69-.85,1,1,0,0,1,.2-.6.64.64,0,0,1,.49-.25h1.25a.79.79,0,0,1,.69.85" transform="translate(0 -83.58)"/><path class="cls-14" d="M180.86,240a1,1,0,0,1-.2.61.63.63,0,0,1-.49.25h-1.25a.8.8,0,0,1-.69-.87,1,1,0,0,1,.2-.61.63.63,0,0,1,.49-.25h1.25a.8.8,0,0,1,.69.87" transform="translate(0 -83.58)"/><path class="cls-14" d="M177.47,237.19a1,1,0,0,1-.2.6.64.64,0,0,1-.49.25h-1.25a.79.79,0,0,1-.69-.85,1,1,0,0,1,.2-.6.64.64,0,0,1,.49-.25h1.25a.79.79,0,0,1,.69.85" transform="translate(0 -83.58)"/><path class="cls-14" d="M177.47,240a1,1,0,0,1-.2.61.63.63,0,0,1-.49.25h-1.25a.8.8,0,0,1-.69-.87,1,1,0,0,1,.2-.61.63.63,0,0,1,.49-.25h1.25a.8.8,0,0,1,.69.87" transform="translate(0 -83.58)"/><path class="cls-14" d="M174.08,240a1,1,0,0,1-.2.61.63.63,0,0,1-.49.25h-1.25a.8.8,0,0,1-.69-.87,1,1,0,0,1,.2-.61.63.63,0,0,1,.49-.25h1.25a.8.8,0,0,1,.69.87" transform="translate(0 -83.58)"/><path class="cls-11" d="M165,237v5.67a2.9,2.9,0,0,1-2.86,2.94h-5.53a2.9,2.9,0,0,1-2.86-2.94V237a2.9,2.9,0,0,1,2.86-2.94h5.53A2.9,2.9,0,0,1,165,237" transform="translate(0 -83.58)"/><path class="cls-14" d="M160.19,242.86h0a.85.85,0,0,1-1.7,0,.42.42,0,0,1,0,0,.85.85,0,1,1,1.71,0" transform="translate(0 -83.58)"/><path class="cls-14" d="M162,241.35a8.89,8.89,0,0,1-2.64.16,9.85,9.85,0,0,1-2.95-.16c-.16-.32.54-.55.55-.74.07-3.13,1-3.4,1.78-3.56.09,0,.37-1.27.47-1.27s.32,1.25.47,1.27c1,.18,1.74.47,2,3.6,0,.17.52.53.37.69" transform="translate(0 -83.58)"/></g><g class="cls-31"><g class="cls-6"><g class="cls-32"><polygon class="cls-8" points="566.93 249.7 377.95 230.2 377.95 214.68 566.93 196.5 566.93 249.7"/></g></g><g class="cls-9"><g class="cls-33"><polygon class="cls-8" points="377.95 214.68 377.95 159.4 566.75 177.19 566.93 196.5 377.95 214.68"/></g></g></g><polygon class="cls-11" points="377.95 290.78 377.95 230.2 566.93 249.7 566.93 290.78 377.95 290.78"/><g class="cls-31"><g class="cls-12"><g class="cls-34"><polygon class="cls-8" points="566.75 177.19 377.95 159.4 377.95 145.39 566.93 145.39 566.75 177.19"/></g></g></g><line class="cls-35" x1="422.98" y1="277.72" x2="404.71" y2="277.72"/><line class="cls-35" x1="484.62" y1="277.72" x2="466.72" y2="277.72"/><line class="cls-35" x1="546.63" y1="278.85" x2="523.56" y2="278.85"/><line class="cls-35" x1="525.04" y1="246.48" x2="507.14" y2="246.48"/><line class="cls-35" x1="496.43" y1="214.11" x2="484.62" y2="214.11"/><line class="cls-35" x1="557.15" y1="213.73" x2="541.09" y2="213.73"/><line class="cls-35" x1="428.15" y1="217.14" x2="416.34" y2="217.14"/><line class="cls-35" x1="467.83" y1="246.86" x2="451.03" y2="246.86"/><line class="cls-35" x1="412.65" y1="247.24" x2="389.4" y2="247.24"/><polygon class="cls-14" points="486.78 269.56 486.61 262.12 486.31 243.61 484.82 236.67 485.03 236.17 484.79 236.54 483.78 231.84 473.28 228.31 473.1 227.67 483.78 229.66 481.77 220.83 482.84 221.19 487.81 238.53 494.92 227.16 495.06 227.83 489.2 241.79 491.16 259.22 492.84 269.56 486.78 269.56"/><polygon class="cls-15" points="394.1 240.14 393.97 234.56 393.75 220.69 392.63 215.49 392.78 215.11 392.61 215.4 391.85 211.87 383.98 209.22 383.84 208.74 391.85 210.24 390.35 203.62 391.14 203.89 394.87 216.88 400.2 208.36 400.31 208.86 395.91 219.33 397.38 232.39 398.64 240.14 394.1 240.14"/><polygon class="cls-15" points="521.62 239.83 521.5 234.26 521.27 220.38 520.15 215.18 520.31 214.81 520.13 215.09 519.37 211.57 511.51 208.92 511.37 208.44 519.37 209.93 517.87 203.32 518.66 203.58 522.39 216.58 527.72 208.06 527.83 208.56 523.44 219.03 524.91 232.09 526.16 239.83 521.62 239.83"/><polygon class="cls-16" points="551.09 208.44 550.99 203.99 550.81 192.91 549.91 188.75 550.04 188.46 549.9 188.68 549.29 185.87 543.01 183.75 542.9 183.37 549.29 184.56 548.09 179.28 548.73 179.49 551.71 189.87 555.96 183.06 556.05 183.46 552.54 191.82 553.71 202.25 554.71 208.44 551.09 208.44"/><polygon class="cls-16" points="416.02 210.72 415.92 206.27 415.74 195.19 414.85 191.03 414.97 190.74 414.83 190.96 414.23 188.15 407.94 186.03 407.83 185.65 414.23 186.84 413.02 181.56 413.66 181.77 416.64 192.15 420.89 185.34 420.98 185.74 417.47 194.1 418.64 204.53 419.65 210.72 416.02 210.72"/><polygon class="cls-14" points="538.49 270.6 540.16 260.26 542.13 242.84 536.26 228.87 536.41 228.2 543.51 239.57 548.49 222.24 549.55 221.88 547.55 230.71 558.23 228.71 558.04 229.35 547.55 232.89 546.54 237.59 546.3 237.21 546.51 237.71 545.01 244.65 544.72 263.17 544.55 270.6 538.49 270.6"/><polygon class="cls-14" points="421.68 270.6 423.35 260.26 425.31 242.84 419.45 228.87 419.59 228.2 426.7 239.57 431.68 222.24 432.74 221.88 430.74 230.71 441.42 228.71 441.23 229.35 430.74 232.89 429.72 237.59 429.49 237.21 429.7 237.71 428.2 244.65 427.9 263.17 427.73 270.6 421.68 270.6"/><polygon class="cls-15" points="450.54 240.14 451.79 232.39 453.26 219.33 448.87 208.86 448.97 208.36 454.3 216.88 458.03 203.89 458.82 203.62 457.32 210.24 465.33 208.74 465.19 209.22 457.32 211.87 456.56 215.4 456.39 215.11 456.54 215.49 455.42 220.69 455.2 234.56 455.07 240.14 450.54 240.14"/><polygon class="cls-16" points="484.63 208.44 485.63 202.25 486.8 191.82 483.29 183.46 483.38 183.06 487.63 189.87 490.61 179.49 491.25 179.28 490.05 184.56 496.44 183.37 496.33 183.75 490.05 185.87 489.44 188.68 489.3 188.46 489.43 188.75 488.53 192.91 488.35 203.99 488.25 208.44 484.63 208.44"/><g class="cls-31"><text class="cls-17" transform="translate(506.74 245.22) scale(1 1.03)">WEDDI<tspan class="cls-36" x="12.53" y="0">N</tspan><tspan class="cls-37" x="15.8" y="0">G</tspan></text><text class="cls-17" transform="translate(450.7 245.52) scale(1 1.03)">S<tspan class="cls-38" x="2.19" y="0">P</tspan><tspan x="3.95" y="0">AN</tspan><tspan class="cls-39" x="9.83" y="0">D</tspan><tspan class="cls-40" x="12.4" y="0">A</tspan><tspan x="14.94" y="0">U</tspan></text><text class="cls-21" transform="translate(416.01 215.77) scale(1 1.03)"><tspan class="cls-41">D</tspan><tspan x="2.23" y="0">AHLEM</tspan></text><text class="cls-21" transform="translate(484.32 212.89) scale(1 1.03)">M<tspan class="cls-42" x="3.19" y="0">O</tspan><tspan x="6.01" y="0">ABIT</tspan></text><text class="cls-43" transform="translate(540.6 212.3) scale(1 1.03)">L<tspan class="cls-44" x="1.46" y="0">ANKWITZ</tspan></text><text class="cls-26" transform="translate(466.5 276.28) scale(1 1.03)">TREP<tspan class="cls-45" x="8.95" y="0">T</tspan><tspan class="cls-46" x="10.84" y="0">O</tspan><tspan x="14.56" y="0">W</tspan></text><text class="cls-26" transform="translate(523.06 277.33) scale(1 1.03)">TEMPELHOF</text><text class="cls-26" transform="translate(404.51 276.28) scale(1 1.03)"><tspan class="cls-47">P</tspan><tspan x="1.98" y="0">AN</tspan><tspan class="cls-48" x="8.64" y="0">K</tspan><tspan class="cls-49" x="11.16" y="0">O</tspan><tspan class="cls-50" x="14.87" y="0">W</tspan></text><text class="cls-17" transform="translate(389.01 245.81) scale(1 1.03)">LI<tspan class="cls-18" x="2.57" y="0">C</tspan><tspan x="5.37" y="0">HTENBE</tspan><tspan class="cls-51" x="19.58" y="0">R</tspan><tspan class="cls-37" x="21.66" y="0">G</tspan></text><path class="cls-11" d="M559.73,237.07v5.58a3,3,0,0,1-2.91,3H551.2a3,3,0,0,1-2.91-3v-5.58a3,3,0,0,1,2.91-3h5.62a3,3,0,0,1,2.91,3" transform="translate(0 -83.58)"/><path class="cls-14" d="M555.42,242.72a1,1,0,0,1-.2.6.64.64,0,0,1-.49.25h-1.25a.79.79,0,0,1-.69-.85,1,1,0,0,1,.2-.6.64.64,0,0,1,.49-.25h1.25a.79.79,0,0,1,.69.85" transform="translate(0 -83.58)"/><path class="cls-14" d="M558.81,240a1,1,0,0,1-.2.61.63.63,0,0,1-.49.25h-1.25a.8.8,0,0,1-.69-.87,1,1,0,0,1,.2-.61.63.63,0,0,1,.49-.25h1.25a.8.8,0,0,1,.69.87" transform="translate(0 -83.58)"/><path class="cls-14" d="M555.42,237.19a1,1,0,0,1-.2.6.64.64,0,0,1-.49.25h-1.25a.79.79,0,0,1-.69-.85,1,1,0,0,1,.2-.6.64.64,0,0,1,.49-.25h1.25a.79.79,0,0,1,.69.85" transform="translate(0 -83.58)"/><path class="cls-14" d="M555.42,240a1,1,0,0,1-.2.61.63.63,0,0,1-.49.25h-1.25a.8.8,0,0,1-.69-.87,1,1,0,0,1,.2-.61.63.63,0,0,1,.49-.25h1.25a.8.8,0,0,1,.69.87" transform="translate(0 -83.58)"/><path class="cls-14" d="M552,240a1,1,0,0,1-.2.61.63.63,0,0,1-.49.25h-1.25a.8.8,0,0,1-.69-.87,1,1,0,0,1,.2-.61.63.63,0,0,1,.49-.25h1.25a.8.8,0,0,1,.69.87" transform="translate(0 -83.58)"/><path class="cls-11" d="M542.94,237v5.67a2.9,2.9,0,0,1-2.86,2.94h-5.53a2.9,2.9,0,0,1-2.86-2.94V237a2.9,2.9,0,0,1,2.86-2.94h5.53a2.9,2.9,0,0,1,2.86,2.94" transform="translate(0 -83.58)"/><path class="cls-14" d="M538.14,242.86h0a.85.85,0,0,1-1.7,0,.42.42,0,0,1,0,0,.85.85,0,1,1,1.71,0" transform="translate(0 -83.58)"/><path class="cls-14" d="M540,241.35a8.89,8.89,0,0,1-2.64.16,9.85,9.85,0,0,1-2.95-.16c-.16-.32.54-.55.55-.74.07-3.13,1-3.4,1.78-3.56.09,0,.37-1.27.47-1.27s.32,1.25.47,1.27c1,.18,1.74.47,2,3.6,0,.17.52.53.37.69" transform="translate(0 -83.58)"/><path class="cls-11" d="M395.67,236.83v5.67a2.9,2.9,0,0,1-2.86,2.94h-5.53a2.9,2.9,0,0,1-2.86-2.94v-5.67a2.9,2.9,0,0,1,2.86-2.94h5.53a2.9,2.9,0,0,1,2.86,2.94" transform="translate(0 -83.58)"/><path class="cls-14" d="M393.72,239.16a.47.47,0,0,1,.32.8.44.44,0,0,1-.32.14h-3.21v3.29a.47.47,0,0,1-.13.33.44.44,0,0,1-.32.14.46.46,0,0,1-.46-.47V240.1h-3.21a.47.47,0,0,1,0-.94h3.21v-3.29a.46.46,0,1,1,.92,0v3.3Z" transform="translate(0 -83.58)"/></g><g class="cls-52"><g class="cls-6"><g class="cls-53"><polygon class="cls-8" points="188.98 249.7 188.98 196.5 377.95 214.68 377.95 230.2 188.98 249.7"/></g></g><g class="cls-9"><g class="cls-54"><polygon class="cls-8" points="377.95 214.68 188.98 196.5 189.16 177.19 377.95 159.4 377.95 214.68"/></g></g></g><polygon class="cls-11" points="188.98 290.78 188.98 249.7 377.95 230.2 377.95 290.78 188.98 290.78"/><g class="cls-52"><g class="cls-12"><g class="cls-55"><polygon class="cls-8" points="189.16 177.19 188.98 145.39 377.95 145.39 377.95 159.4 189.16 177.19 189.16 177.19"/></g></g></g><polygon class="cls-14" points="200.07 274.75 200.07 234.94 197.25 185.18 200.83 145.39 208.06 145.39 207.69 175.22 208.94 234.94 208.29 265.74 208.1 274.75 200.07 274.75"/><polygon class="cls-15" points="244.86 250.44 244.86 219.51 242.66 180.85 245.66 147.57 245.65 147.57 245.84 145.39 251.1 145.39 251.09 147.11 251.08 147.57 251.09 147.57 250.77 173.12 251.74 219.51 251.24 243.44 251.1 250.44 244.86 250.44"/><polygon class="cls-16" points="340.59 218.77 340.59 195.57 338.94 166.57 340.85 145.39 345.22 145.39 345.02 160.77 345.75 195.57 345.38 213.52 345.27 218.77 340.59 218.77"/><polygon class="cls-16" points="292.63 218.77 292.63 195.57 290.99 166.57 292.89 145.39 297.26 145.39 297.07 160.77 297.8 195.57 297.42 213.52 297.31 218.77 292.63 218.77"/><polygon class="cls-14" points="358.7 276.29 358.51 267.27 357.87 236.48 359.12 176.75 358.73 145.39 365.84 145.39 369.56 186.71 366.74 236.48 366.74 276.29 358.7 276.29"/><polygon class="cls-14" points="271.7 274.04 271.51 265.03 270.87 234.23 272.11 174.51 271.75 145.39 279.04 145.39 282.55 184.46 279.73 234.23 279.73 274.04 271.7 274.04"/><polygon class="cls-15" points="316.95 253.75 316.81 246.75 316.31 222.82 317.27 176.43 316.96 150.88 316.96 150.88 316.96 150.42 316.91 145.39 321.91 145.39 322.4 150.88 322.39 150.88 325.38 184.16 323.19 222.82 323.19 253.75 316.95 253.75"/><polygon class="cls-16" points="221.96 223.43 221.85 218.18 221.48 200.23 222.21 165.43 221.97 146.27 221.97 146.27 221.97 145.92 221.96 145.39 225.97 145.39 226.05 146.27 226.04 146.27 228.29 171.23 226.64 200.23 226.64 223.43 221.96 223.43"/><g class="cls-52"><text class="cls-26" transform="translate(332.19 281.66) scale(1 1.03)">FRIEDRI<tspan class="cls-56" x="14.63" y="0">C</tspan><tspan class="cls-57" x="17.79" y="0">HSHAIN</tspan></text><text class="cls-17" transform="translate(316.31 258.32) scale(1 1.03)">NEU<tspan class="cls-58" x="8.06" y="0">K</tspan><tspan x="10.29" y="0">ÖLLN</tspan></text><text class="cls-17" transform="translate(227.4 255.62) scale(1 1.03)">LI<tspan class="cls-18" x="2.57" y="0">C</tspan><tspan class="cls-19" x="5.37" y="0">HTENBE</tspan><tspan class="cls-20" x="19.58" y="0">R</tspan><tspan x="21.66" y="0">G</tspan></text><text class="cls-21" transform="translate(221.8 227.89) scale(1 1.03)"><tspan class="cls-25">K</tspan><tspan x="1.94" y="0">ÖPENI</tspan><tspan class="cls-59" x="12.08" y="0">C</tspan><tspan x="14.52" y="0">K</tspan></text><text class="cls-21" transform="translate(285.35 223.46) scale(1 1.03)"><tspan class="cls-59">C</tspan><tspan class="cls-60" x="2.43" y="0">HAR</tspan><tspan class="cls-61" x="9.02" y="0">L</tspan><tspan class="cls-62" x="10.21" y="0">O</tspan><tspan x="13.01" y="0">TTENBU</tspan><tspan class="cls-63" x="25.11" y="0">R</tspan><tspan x="26.91" y="0">G</tspan></text><text class="cls-21" transform="translate(336.86 223.46) scale(1 1.03)">MITTE</text><text class="cls-26" transform="translate(271.15 280.63) scale(1 1.03)">WILMERSDORF</text><text class="cls-26" transform="translate(200.08 279.6) scale(1 1.03)">KREUZBE<tspan class="cls-27" x="17.98" y="0">R</tspan><tspan x="20.33" y="0">G</tspan></text></g><line class="cls-28" x1="300.44" y1="282.26" x2="271.47" y2="282.26"/><line class="cls-28" x1="336.06" y1="259.73" x2="316.31" y2="259.73"/><line class="cls-28" x1="366.51" y1="283.4" x2="332.92" y2="283.4"/><line class="cls-28" x1="223.3" y1="281.31" x2="200.05" y2="281.31"/><line class="cls-64" x1="251.35" y1="257.08" x2="228.1" y2="257.08"/><line class="cls-29" x1="237.33" y1="229.25" x2="222.2" y2="229.25"/><line class="cls-29" x1="314.28" y1="224.52" x2="285.31" y2="224.52"/><line class="cls-28" x1="346.21" y1="224.52" x2="336.8" y2="224.52"/><g class="cls-52"><path class="cls-11" d="M370.76,237.07v5.58a3,3,0,0,1-2.91,3h-5.62a3,3,0,0,1-2.91-3v-5.58a3,3,0,0,1,2.91-3h5.62a3,3,0,0,1,2.91,3" transform="translate(0 -83.58)"/><path class="cls-14" d="M366.44,242.72a1,1,0,0,1-.2.6.64.64,0,0,1-.49.25H364.5a.79.79,0,0,1-.69-.85,1,1,0,0,1,.2-.6.64.64,0,0,1,.49-.25h1.25a.79.79,0,0,1,.69.85" transform="translate(0 -83.58)"/><path class="cls-14" d="M369.83,240a1,1,0,0,1-.2.61.63.63,0,0,1-.49.25h-1.25a.8.8,0,0,1-.69-.87,1,1,0,0,1,.2-.61.63.63,0,0,1,.49-.25h1.25a.8.8,0,0,1,.69.87" transform="translate(0 -83.58)"/><path class="cls-14" d="M366.44,237.19a1,1,0,0,1-.2.6.64.64,0,0,1-.49.25H364.5a.79.79,0,0,1-.69-.85,1,1,0,0,1,.2-.6.64.64,0,0,1,.49-.25h1.25a.79.79,0,0,1,.69.85" transform="translate(0 -83.58)"/><path class="cls-14" d="M366.44,240a1,1,0,0,1-.2.61.63.63,0,0,1-.49.25H364.5a.8.8,0,0,1-.69-.87,1,1,0,0,1,.2-.61.63.63,0,0,1,.49-.25h1.25a.8.8,0,0,1,.69.87" transform="translate(0 -83.58)"/><path class="cls-14" d="M363.06,240a1,1,0,0,1-.2.61.63.63,0,0,1-.49.25h-1.25a.8.8,0,0,1-.69-.87,1,1,0,0,1,.2-.61.63.63,0,0,1,.49-.25h1.25a.8.8,0,0,1,.69.87" transform="translate(0 -83.58)"/><path class="cls-11" d="M354,237v5.67a2.9,2.9,0,0,1-2.86,2.94h-5.53a2.9,2.9,0,0,1-2.86-2.94V237a2.9,2.9,0,0,1,2.86-2.94h5.53A2.9,2.9,0,0,1,354,237" transform="translate(0 -83.58)"/><path class="cls-14" d="M349.16,242.86h0a.85.85,0,0,1-1.7,0,.42.42,0,0,1,0,0,.85.85,0,1,1,1.71,0" transform="translate(0 -83.58)"/><path class="cls-14" d="M351,241.35a8.89,8.89,0,0,1-2.64.16,9.85,9.85,0,0,1-2.95-.16c-.16-.32.54-.55.55-.74.07-3.13,1-3.4,1.78-3.56.09,0,.37-1.27.47-1.27s.32,1.25.47,1.27c1,.18,1.74.47,2,3.6,0,.17.52.53.37.69" transform="translate(0 -83.58)"/></g><g class="cls-65"><g class="cls-66"><g class="cls-67"><polygon class="cls-8" points="188.98 94.28 188.98 41.08 377.95 60.58 377.95 76.1 188.98 94.28"/></g></g><g class="cls-68"><g class="cls-69"><polygon class="cls-8" points="377.95 131.38 189.16 113.58 188.98 94.28 377.95 76.1 377.95 131.38"/></g></g><g class="cls-70"><g class="cls-71"><polygon class="cls-11" points="377.95 60.58 188.98 41.08 188.98 0 377.95 0 377.95 60.58 377.95 60.58"/></g></g><g class="cls-12"><g class="cls-72"><polygon class="cls-8" points="188.98 145.39 189.16 113.58 377.95 131.38 377.95 145.39 188.98 145.39"/></g></g></g><polygon class="cls-14" points="200.83 145.39 201.1 142.34 201.09 142.34 201.8 134.5 204.51 91.07 188.98 71.22 188.98 69.34 205.78 87.09 219.66 0 219.7 0 212.02 64.6 215.28 63.96 215.33 63.95 236.81 59.74 215.55 65.34 215.45 65.37 212.02 66.27 208.51 95.59 208.48 98.77 208.48 98.99 208.1 141.74 208.09 142.34 208.1 142.34 208.06 145.39 200.83 145.39"/><polygon class="cls-15" points="245.84 145.39 246.19 141.49 248.31 107.75 229.64 83.9 249.29 104.66 256.02 62.46 256.15 61.61 260.19 36.28 257.15 61.8 257.04 62.73 254.13 87.18 270 84.07 273.4 83.41 270.02 84.3 254.14 88.48 251.41 111.26 251.1 145.39 245.84 145.39"/><polygon class="cls-16" points="340.85 145.39 341.18 141.61 341.18 141.61 341.59 137.04 343.17 111.73 331.19 96.43 330.51 95.55 329.17 93.85 330.65 95.4 331.38 96.18 343.92 109.42 350.72 66.73 350.93 65.38 352.09 58.13 351.22 65.43 351.05 66.82 347.55 96.31 357.95 94.27 362 93.47 357.99 94.53 347.55 97.28 345.5 114.37 345.26 141.26 345.26 141.61 345.26 141.61 345.22 145.39 340.85 145.39"/><polygon class="cls-16" points="292.89 145.39 293.23 141.61 293.22 141.61 293.64 137.04 295.22 111.73 281.22 93.85 295.96 109.42 299.38 87.96 299.43 87.65 304.13 58.13 300.6 87.88 300.55 88.27 299.59 96.31 314.04 93.47 299.59 97.28 297.55 114.37 297.31 141.26 297.3 141.61 297.31 141.61 297.26 145.39 292.89 145.39"/><polygon class="cls-14" points="358.73 145.39 358.71 143.87 358.72 143.87 358.71 143.28 358.3 97.13 357.99 94.53 357.95 94.27 354.79 67.81 351.05 66.82 350.72 66.73 329.99 61.27 350.93 65.38 351.22 65.43 354.79 66.13 347 0.61 361.02 88.63 377.95 70.75 377.95 72.6 362.3 92.6 365.01 136.03 365.72 143.87 365.71 143.87 365.84 145.39 358.73 145.39"/><polygon class="cls-14" points="271.75 145.39 271.7 141.63 271.71 141.63 271.71 141.03 271.29 94.88 270.02 84.3 270 84.07 267.78 65.56 257.04 62.73 256.02 62.46 242.99 59.03 256.15 61.61 257.15 61.8 267.79 63.89 260.19 0 260.25 0 274.02 86.38 299.31 59.67 275.29 90.36 278.01 133.79 278.71 141.63 278.7 141.63 279.04 145.39 271.75 145.39"/><polygon class="cls-15" points="316.91 145.39 316.64 114.57 313.91 91.79 300.55 88.27 299.38 87.96 294.65 86.72 299.43 87.65 300.6 87.88 313.91 90.49 307.86 39.59 318.75 107.97 330.51 95.55 330.65 95.4 338.4 87.21 331.38 96.18 331.19 96.43 319.74 111.06 321.85 144.8 321.91 145.39 316.91 145.39"/><polygon class="cls-16" points="221.96 145.39 221.73 119.03 219.68 101.94 208.48 98.99 205.23 98.13 208.48 98.77 219.68 100.96 215.45 65.37 215.28 63.96 215.14 62.78 215.33 63.95 215.55 65.34 223.31 114.08 238.06 98.51 224.06 116.39 225.64 141.7 225.97 145.39 221.96 145.39"/><g class="cls-65"><g class="cls-73"><g class="cls-74"><g class="cls-75"><path class="cls-2" d="M278.12,119h-21a2.94,2.94,0,0,1,0-5.87h21a2.94,2.94,0,0,1,0,5.87" transform="translate(0 -83.58)"/></g></g></g><g class="cls-73"><g class="cls-76"><g class="cls-77"><path class="cls-2" d="M360,107.88H326.43a2.94,2.94,0,0,1,0-5.87H360a2.94,2.94,0,0,1,0,5.87" transform="translate(0 -83.58)"/></g></g></g><g class="cls-73"><g class="cls-78"><g class="cls-78"><path class="cls-2" d="M365.69,139.7h-28a2.66,2.66,0,0,1-2.63-2.7v-.47a2.66,2.66,0,0,1,2.63-2.7h28a2.66,2.66,0,0,1,2.63,2.7V137a2.66,2.66,0,0,1-2.63,2.7" transform="translate(0 -83.58)"/></g></g></g><g class="cls-73"><g class="cls-79"><g class="cls-79"><path class="cls-2" d="M320.07,217.12H289.73a2.77,2.77,0,0,1-2.73-2.8v-.27a2.77,2.77,0,0,1,2.73-2.8h30.34a2.77,2.77,0,0,1,2.73,2.8v.27a2.77,2.77,0,0,1-2.73,2.8" transform="translate(0 -83.58)"/></g></g></g><g class="cls-73"><g class="cls-80"><g class="cls-81"><path class="cls-2" d="M263,204.6H217.27a2.94,2.94,0,0,1,0-5.87H263a2.94,2.94,0,0,1,0,5.87" transform="translate(0 -83.58)"/></g></g></g><g class="cls-73"><g class="cls-82"><g class="cls-83"><path class="cls-2" d="M274,165.3H237.42a2.94,2.94,0,0,1,0-5.87H274a2.94,2.94,0,0,1,0,5.87" transform="translate(0 -83.58)"/></g></g></g><g class="cls-73"><g class="cls-84"><g class="cls-84"><path class="cls-2" d="M332.79,157.7H300.54a2.74,2.74,0,0,1-2.7-2.77v-.33a2.74,2.74,0,0,1,2.7-2.77h32.25a2.74,2.74,0,0,1,2.7,2.77v.33a2.74,2.74,0,0,1-2.7,2.77" transform="translate(0 -83.58)"/></g></g></g><g class="cls-73"><g class="cls-85"><g class="cls-86"><path class="cls-2" d="M247.25,134.79H214a2.94,2.94,0,0,1,0-5.87h33.22a2.94,2.94,0,0,1,0,5.87" transform="translate(0 -83.58)"/></g></g></g></g><g class="cls-65"><text class="cls-87" transform="matrix(1, 0.01, -0.01, 1.03, 257.56, 33.51)"><tspan class="cls-88">P</tspan><tspan x="1.52" y="0">ADDE</tspan><tspan class="cls-88" x="10.26" y="0">L</tspan><tspan class="cls-89" x="11.42" y="0">T</tspan><tspan x="12.88" y="0">OUR</tspan></text><text class="cls-21" transform="translate(300.2 72.28) scale(1 1.03)">AN DEN SEE <tspan class="cls-90" x="20.3" y="0">F</tspan><tspan x="21.72" y="0">AHREN</tspan></text><text class="cls-21" transform="translate(289.13 131.71) scale(1 1.03)">F<tspan class="cls-91" x="1.6" y="0">O</tspan><tspan class="cls-92" x="4.4" y="0">TO</tspan><tspan class="cls-44" x="8.68" y="0">ALBEN KLEBEN</tspan></text><text class="cls-21" transform="translate(215.51 119.18) scale(1 1.03)"><tspan class="cls-93">A</tspan><tspan x="2.21" y="0">US</tspan><tspan class="cls-94" x="6.51" y="0">S</tspan><tspan class="cls-95" x="8.43" y="0">TEL</tspan><tspan class="cls-96" x="13.1" y="0">L</tspan><tspan x="14.34" y="0">U</tspan><tspan class="cls-97" x="16.74" y="0">N</tspan><tspan x="19.59" y="0">G IM G</tspan><tspan class="cls-98" x="31.13" y="0">R</tspan><tspan x="32.93" y="0">OPIUS</tspan><tspan class="cls-99" x="42.77" y="0">B</tspan><tspan class="cls-93" x="44.7" y="0">A</tspan><tspan x="46.91" y="0">U</tspan></text><text class="cls-21" transform="translate(337.13 54.29) scale(1 1.03)">K<tspan class="cls-96" x="2.1" y="0">L</tspan><tspan x="3.34" y="0">UNKERKRANI</tspan><tspan class="cls-59" x="24.29" y="0">C</tspan><tspan class="cls-60" x="26.72" y="0">H</tspan></text><text class="cls-21" transform="translate(325.09 22.47) scale(1 1.03)"><tspan class="cls-100">S</tspan><tspan x="1.88" y="0">AL</tspan><tspan class="cls-100" x="5.49" y="0">S</tspan><tspan x="7.37" y="0">A </tspan><tspan class="cls-101" x="10.58" y="0">T</tspan><tspan x="12" y="0">ANZEN GEHEN</tspan></text><text class="cls-21" transform="translate(236.46 79.89) scale(1 1.03)">M<tspan class="cls-96" x="3.19" y="0">A</tspan><tspan class="cls-102" x="5.39" y="0">UER</tspan><tspan class="cls-103" x="11.42" y="0">P</tspan><tspan x="12.94" y="0">ARKF</tspan><tspan class="cls-104" x="20.78" y="0">L</tspan><tspan x="21.97" y="0">OHMAR</tspan><tspan class="cls-105" x="34.67" y="0">K</tspan><tspan class="cls-102" x="36.89" y="0">T</tspan></text><text class="cls-21" transform="translate(213.05 49.38) scale(1 1.03)"><tspan class="cls-25">K</tspan><tspan x="1.94" y="0">OSMO</tspan><tspan class="cls-106" x="12.9" y="0">N</tspan><tspan class="cls-93" x="15.73" y="0">A</tspan><tspan x="17.94" y="0">UTFE</tspan><tspan class="cls-94" x="25.28" y="0">S</tspan><tspan class="cls-95" x="27.21" y="0">TI</tspan><tspan class="cls-107" x="29.69" y="0">V</tspan><tspan class="cls-102" x="31.56" y="0">AL</tspan></text></g><polygon class="cls-14" points="200.83 145.39 201.1 142.34 201.09 142.34 201.8 134.5 204.51 91.07 188.98 71.22 188.98 69.34 205.78 87.09 219.66 0 219.7 0 212.02 64.6 215.28 63.96 215.33 63.95 236.81 59.74 215.55 65.34 215.45 65.37 212.02 66.27 208.51 95.59 208.48 98.77 208.48 98.99 208.1 141.74 208.09 142.34 208.1 142.34 208.06 145.39 200.83 145.39"/><polygon class="cls-15" points="245.84 145.39 246.19 141.49 248.31 107.75 229.64 83.9 249.29 104.66 256.02 62.46 256.15 61.61 260.19 36.28 257.15 61.8 257.04 62.73 254.13 87.18 270 84.07 273.4 83.41 270.02 84.3 254.14 88.48 251.41 111.26 251.1 145.39 245.84 145.39"/><polygon class="cls-16" points="340.85 145.39 341.18 141.61 341.18 141.61 341.59 137.04 343.17 111.73 331.19 96.43 330.51 95.55 329.17 93.85 330.65 95.4 331.38 96.18 343.92 109.42 350.72 66.73 350.93 65.38 352.09 58.13 351.22 65.43 351.05 66.82 347.55 96.31 357.95 94.27 362 93.47 357.99 94.53 347.55 97.28 345.5 114.37 345.26 141.26 345.26 141.61 345.26 141.61 345.22 145.39 340.85 145.39"/><polygon class="cls-16" points="292.89 145.39 293.23 141.61 293.22 141.61 293.64 137.04 295.22 111.73 281.22 93.85 295.96 109.42 299.38 87.96 299.43 87.65 304.13 58.13 300.6 87.88 300.55 88.27 299.59 96.31 314.04 93.47 299.59 97.28 297.55 114.37 297.31 141.26 297.3 141.61 297.31 141.61 297.26 145.39 292.89 145.39"/><polygon class="cls-14" points="358.73 145.39 358.71 143.87 358.72 143.87 358.71 143.28 358.3 97.13 357.99 94.53 357.95 94.27 354.79 67.81 351.05 66.82 350.72 66.73 329.99 61.27 350.93 65.38 351.22 65.43 354.79 66.13 347 0.61 361.02 88.63 377.95 70.75 377.95 72.6 362.3 92.6 365.01 136.03 365.72 143.87 365.71 143.87 365.84 145.39 358.73 145.39"/><polygon class="cls-14" points="271.75 145.39 271.7 141.63 271.71 141.63 271.71 141.03 271.29 94.88 270.02 84.3 270 84.07 267.78 65.56 257.04 62.73 256.02 62.46 242.99 59.03 256.15 61.61 257.15 61.8 267.79 63.89 260.19 0 260.25 0 274.02 86.38 299.31 59.67 275.29 90.36 278.01 133.79 278.71 141.63 278.7 141.63 279.04 145.39 271.75 145.39"/><polygon class="cls-15" points="316.91 145.39 316.64 114.57 313.91 91.79 300.55 88.27 299.38 87.96 294.65 86.72 299.43 87.65 300.6 87.88 313.91 90.49 307.86 39.59 318.75 107.97 330.51 95.55 330.65 95.4 338.4 87.21 331.38 96.18 331.19 96.43 319.74 111.06 321.85 144.8 321.91 145.39 316.91 145.39"/><polygon class="cls-16" points="221.96 145.39 221.73 119.03 219.68 101.94 208.48 98.99 205.23 98.13 208.48 98.77 219.68 100.96 215.45 65.37 215.28 63.96 215.14 62.78 215.33 63.95 215.55 65.34 223.31 114.08 238.06 98.51 224.06 116.39 225.64 141.7 225.97 145.39 221.96 145.39"/><g class="cls-65"><g class="cls-73"><g class="cls-74"><g class="cls-75"><path class="cls-2" d="M279.42,119H255.78a1.58,1.58,0,0,1-1.56-1.6V114.7a1.58,1.58,0,0,1,1.56-1.6h23.64a1.58,1.58,0,0,1,1.56,1.6v2.67a1.58,1.58,0,0,1-1.56,1.6" transform="translate(0 -83.58)"/></g></g></g><g class="cls-73"><g class="cls-76"><g class="cls-77"><path class="cls-2" d="M361.69,107.88H324.75a1.2,1.2,0,0,1-1.19-1.22v-3.44a1.2,1.2,0,0,1,1.19-1.22h36.94a1.2,1.2,0,0,1,1.19,1.22v3.44a1.2,1.2,0,0,1-1.19,1.22" transform="translate(0 -83.58)"/></g></g></g><g class="cls-73"><g class="cls-78"><g class="cls-78"><path class="cls-2" d="M367.09,139.7H336.33a1.25,1.25,0,0,1-1.23-1.26V135.1a1.25,1.25,0,0,1,1.23-1.26h30.75a1.25,1.25,0,0,1,1.23,1.26v3.34a1.25,1.25,0,0,1-1.23,1.26" transform="translate(0 -83.58)"/></g></g></g><g class="cls-73"><g class="cls-79"><g class="cls-79"><path class="cls-2" d="M321.51,217.12H288.29a1.31,1.31,0,0,1-1.29-1.33v-3.21a1.31,1.31,0,0,1,1.29-1.33h33.21a1.31,1.31,0,0,1,1.3,1.33v3.21a1.31,1.31,0,0,1-1.3,1.33" transform="translate(0 -83.58)"/></g></g></g><g class="cls-73"><g class="cls-80"><g class="cls-81"><path class="cls-2" d="M264.58,204.6H215.74a1.34,1.34,0,0,1-1.32-1.36v-3.15a1.34,1.34,0,0,1,1.32-1.36h48.84a1.34,1.34,0,0,1,1.32,1.36v3.15a1.34,1.34,0,0,1-1.32,1.36" transform="translate(0 -83.58)"/></g></g></g><g class="cls-73"><g class="cls-82"><g class="cls-83"><path class="cls-2" d="M275.54,165.3h-39.7a1.3,1.3,0,0,1-1.28-1.31v-3.24a1.3,1.3,0,0,1,1.28-1.31h39.7a1.3,1.3,0,0,1,1.28,1.31V164a1.3,1.3,0,0,1-1.28,1.31" transform="translate(0 -83.58)"/></g></g></g><g class="cls-73"><g class="cls-84"><g class="cls-84"><path class="cls-2" d="M334.16,157.7h-35a1.34,1.34,0,0,1-1.33-1.36v-3.15a1.34,1.34,0,0,1,1.33-1.36h35a1.34,1.34,0,0,1,1.33,1.36v3.15a1.34,1.34,0,0,1-1.33,1.36" transform="translate(0 -83.58)"/></g></g></g><g class="cls-73"><g class="cls-85"><g class="cls-86"><path class="cls-2" d="M248.75,134.79H212.54a1.38,1.38,0,0,1-1.37-1.4v-3.07a1.38,1.38,0,0,1,1.37-1.4h36.21a1.38,1.38,0,0,1,1.37,1.4v3.07a1.38,1.38,0,0,1-1.37,1.4" transform="translate(0 -83.58)"/></g></g></g></g><g class="cls-65"><text class="cls-87" transform="matrix(1, 0.01, -0.01, 1.03, 257.56, 33.51)"><tspan class="cls-88">P</tspan><tspan x="1.52" y="0">ADDE</tspan><tspan class="cls-88" x="10.26" y="0">L</tspan><tspan class="cls-89" x="11.42" y="0">T</tspan><tspan x="12.88" y="0">OUR</tspan></text><text class="cls-21" transform="translate(300.2 72.28) scale(1 1.03)">AN DEN SEE <tspan class="cls-90" x="20.3" y="0">F</tspan><tspan x="21.72" y="0">AHREN</tspan></text><text class="cls-21" transform="translate(289.13 131.71) scale(1 1.03)">F<tspan class="cls-91" x="1.6" y="0">O</tspan><tspan class="cls-92" x="4.4" y="0">TO</tspan><tspan class="cls-44" x="8.68" y="0">ALBEN KLEBEN</tspan></text><text class="cls-21" transform="translate(215.51 119.18) scale(1 1.03)"><tspan class="cls-93">A</tspan><tspan x="2.21" y="0">US</tspan><tspan class="cls-94" x="6.51" y="0">S</tspan><tspan class="cls-95" x="8.43" y="0">TEL</tspan><tspan class="cls-96" x="13.1" y="0">L</tspan><tspan x="14.34" y="0">U</tspan><tspan class="cls-97" x="16.74" y="0">N</tspan><tspan x="19.59" y="0">G IM G</tspan><tspan class="cls-98" x="31.13" y="0">R</tspan><tspan x="32.93" y="0">OPIUS</tspan><tspan class="cls-99" x="42.77" y="0">B</tspan><tspan class="cls-93" x="44.7" y="0">A</tspan><tspan x="46.91" y="0">U</tspan></text><text class="cls-21" transform="translate(337.13 54.29) scale(1 1.03)">K<tspan class="cls-96" x="2.1" y="0">L</tspan><tspan x="3.34" y="0">UNKERKRANI</tspan><tspan class="cls-59" x="24.29" y="0">C</tspan><tspan class="cls-60" x="26.72" y="0">H</tspan></text><text class="cls-21" transform="translate(325.09 22.47) scale(1 1.03)"><tspan class="cls-100">S</tspan><tspan x="1.88" y="0">AL</tspan><tspan class="cls-100" x="5.49" y="0">S</tspan><tspan x="7.37" y="0">A </tspan><tspan class="cls-101" x="10.58" y="0">T</tspan><tspan x="12" y="0">ANZEN GEHEN</tspan></text><text class="cls-21" transform="translate(236.46 79.89) scale(1 1.03)">M<tspan class="cls-96" x="3.19" y="0">A</tspan><tspan class="cls-102" x="5.39" y="0">UER</tspan><tspan class="cls-103" x="11.42" y="0">P</tspan><tspan x="12.94" y="0">ARKF</tspan><tspan class="cls-104" x="20.78" y="0">L</tspan><tspan x="21.97" y="0">OHMAR</tspan><tspan class="cls-105" x="34.67" y="0">K</tspan><tspan class="cls-102" x="36.89" y="0">T</tspan></text><text class="cls-21" transform="translate(213.05 49.38) scale(1 1.03)"><tspan class="cls-25">K</tspan><tspan x="1.94" y="0">OSMO</tspan><tspan class="cls-106" x="12.9" y="0">N</tspan><tspan class="cls-93" x="15.73" y="0">A</tspan><tspan x="17.94" y="0">UTFE</tspan><tspan class="cls-94" x="25.28" y="0">S</tspan><tspan class="cls-95" x="27.21" y="0">TI</tspan><tspan class="cls-107" x="29.69" y="0">V</tspan><tspan class="cls-102" x="31.56" y="0">AL</tspan></text><path class="cls-108" d="M355.07,91.06v5.67a2.9,2.9,0,0,1-2.86,2.94h-5.53a2.9,2.9,0,0,1-2.86-2.94V91.06a2.9,2.9,0,0,1,2.86-2.94h5.53a2.9,2.9,0,0,1,2.86,2.94" transform="translate(0 -83.58)"/><path class="cls-14" d="M350.27,96.91h0a.85.85,0,0,1-1.7,0,.42.42,0,0,1,0,0,.85.85,0,1,1,1.71,0" transform="translate(0 -83.58)"/><path class="cls-14" d="M352.13,95.39a8.89,8.89,0,0,1-2.64.16,9.85,9.85,0,0,1-2.95-.16c-.16-.32.54-.55.55-.74.07-3.13,1-3.4,1.78-3.56.09,0,.37-1.27.47-1.27s.32,1.25.47,1.27c1,.18,1.74.47,2,3.6,0,.17.52.53.37.69" transform="translate(0 -83.58)"/><path class="cls-108" d="M371.86,91.11v5.58a3,3,0,0,1-2.91,3h-5.62a3,3,0,0,1-2.91-3V91.11a3,3,0,0,1,2.91-3H369a3,3,0,0,1,2.91,3" transform="translate(0 -83.58)"/><path class="cls-14" d="M367.55,96.76a1,1,0,0,1-.2.6.64.64,0,0,1-.49.25h-1.25a.79.79,0,0,1-.69-.85,1,1,0,0,1,.2-.6.64.64,0,0,1,.49-.25h1.25a.79.79,0,0,1,.69.85" transform="translate(0 -83.58)"/><path class="cls-14" d="M370.94,94a1,1,0,0,1-.2.61.63.63,0,0,1-.49.25H369a.8.8,0,0,1-.69-.87,1,1,0,0,1,.2-.61.63.63,0,0,1,.49-.25h1.25a.8.8,0,0,1,.69.87" transform="translate(0 -83.58)"/><path class="cls-14" d="M367.55,91.23a1,1,0,0,1-.2.6.64.64,0,0,1-.49.25h-1.25a.79.79,0,0,1-.69-.85,1,1,0,0,1,.2-.6.64.64,0,0,1,.49-.25h1.25a.79.79,0,0,1,.69.85" transform="translate(0 -83.58)"/><path class="cls-14" d="M367.55,94a1,1,0,0,1-.2.61.63.63,0,0,1-.49.25h-1.25a.8.8,0,0,1-.69-.87,1,1,0,0,1,.2-.61.63.63,0,0,1,.49-.25h1.25a.8.8,0,0,1,.69.87" transform="translate(0 -83.58)"/><path class="cls-14" d="M364.16,94a1,1,0,0,1-.2.61.63.63,0,0,1-.49.25h-1.25a.8.8,0,0,1-.69-.87,1,1,0,0,1,.2-.61.63.63,0,0,1,.49-.25h1.25a.8.8,0,0,1,.69.87" transform="translate(0 -83.58)"/><path class="cls-108" d="M206.69,91.44v5.67a2.9,2.9,0,0,1-2.86,2.94H198.3a2.9,2.9,0,0,1-2.86-2.94V91.44a2.9,2.9,0,0,1,2.86-2.94h5.53a2.9,2.9,0,0,1,2.86,2.94" transform="translate(0 -83.58)"/><path class="cls-14" d="M204.74,93.77a.47.47,0,0,1,.32.8.44.44,0,0,1-.32.14h-3.21V98a.47.47,0,0,1-.13.33.44.44,0,0,1-.32.14.46.46,0,0,1-.46-.47V94.71H197.4a.47.47,0,0,1,0-.94h3.21V90.47a.46.46,0,1,1,.92,0v3.3Z" transform="translate(0 -83.58)"/></g><g class="cls-109"><path class="cls-110" d="M237.51,450.84h-7.94a2.25,2.25,0,0,0-2.21,2.27v8.14a2.25,2.25,0,0,0,2.21,2.27h7.94a2.25,2.25,0,0,0,2.21-2.27v-8.14a2.25,2.25,0,0,0-2.21-2.27" transform="translate(0 -83.58)"/></g><g class="cls-109"><text class="cls-111" transform="translate(204.11 306.87) scale(1 1.03)"><tspan class="cls-112">K</tspan><tspan x="6.98" y="0">alender</tspan></text><path class="cls-113" d="M231,430.58a1.26,1.26,0,1,0-1.26,1.29,1.27,1.27,0,0,0,1.26-1.29" transform="translate(0 -83.58)"/><path class="cls-114" d="M244.58,430.58a1.26,1.26,0,1,0-1.26,1.29,1.27,1.27,0,0,0,1.26-1.29" transform="translate(0 -83.58)"/><path class="cls-113" d="M245,461.06a1.26,1.26,0,1,0-1.26,1.29,1.27,1.27,0,0,0,1.26-1.29" transform="translate(0 -83.58)"/><path class="cls-115" d="M257.44,430.58a1.26,1.26,0,1,0-1.26,1.29,1.27,1.27,0,0,0,1.26-1.29" transform="translate(0 -83.58)"/><path class="cls-113" d="M228.72,477.34a1.26,1.26,0,1,1,1.26,1.29,1.27,1.27,0,0,1-1.26-1.29" transform="translate(0 -83.58)"/><path class="cls-113" d="M268.77,492.3a1.26,1.26,0,1,1,1.26,1.29,1.27,1.27,0,0,1-1.26-1.29" transform="translate(0 -83.58)"/><path class="cls-113" d="M268.59,492.3a1.26,1.26,0,1,1,1.26,1.29,1.27,1.27,0,0,1-1.26-1.29" transform="translate(0 -83.58)"/><path class="cls-113" d="M246.07,492.49a1.26,1.26,0,1,1,1.26,1.29,1.27,1.27,0,0,1-1.26-1.29" transform="translate(0 -83.58)"/><path class="cls-114" d="M215.12,477.34a1.26,1.26,0,1,1,1.26,1.29,1.27,1.27,0,0,1-1.26-1.29" transform="translate(0 -83.58)"/><path class="cls-114" d="M215.12,492.49a1.26,1.26,0,1,1,1.26,1.29,1.27,1.27,0,0,1-1.26-1.29" transform="translate(0 -83.58)"/><path class="cls-114" d="M228.41,492.49a1.26,1.26,0,1,1,1.26,1.29,1.27,1.27,0,0,1-1.26-1.29" transform="translate(0 -83.58)"/><path class="cls-115" d="M202.26,477.34a1.26,1.26,0,1,1,1.26,1.29,1.27,1.27,0,0,1-1.26-1.29" transform="translate(0 -83.58)"/><path class="cls-115" d="M271.29,461.06a1.26,1.26,0,1,0-1.26,1.29,1.27,1.27,0,0,0,1.26-1.29" transform="translate(0 -83.58)"/><path class="cls-113" d="M231.35,443.46a1.26,1.26,0,1,0-1.26,1.29,1.27,1.27,0,0,0,1.26-1.29" transform="translate(0 -83.58)"/><path class="cls-113" d="M245,477.34a1.26,1.26,0,1,0-1.26,1.29,1.27,1.27,0,0,0,1.26-1.29" transform="translate(0 -83.58)"/><path class="cls-115" d="M245,456.9a1.26,1.26,0,1,0-1.26,1.29A1.27,1.27,0,0,0,245,456.9" transform="translate(0 -83.58)"/><path class="cls-114" d="M248.59,456.9a1.26,1.26,0,1,0-1.26,1.29,1.27,1.27,0,0,0,1.26-1.29" transform="translate(0 -83.58)"/><path class="cls-113" d="M252.58,456.9a1.26,1.26,0,1,0-1.26,1.29,1.27,1.27,0,0,0,1.26-1.29" transform="translate(0 -83.58)"/><path class="cls-114" d="M245,443.46a1.26,1.26,0,1,0-1.26,1.29,1.27,1.27,0,0,0,1.26-1.29" transform="translate(0 -83.58)"/><path class="cls-115" d="M257.81,443.46a1.26,1.26,0,1,0-1.26,1.29,1.27,1.27,0,0,0,1.26-1.29" transform="translate(0 -83.58)"/><path class="cls-115" d="M244.89,492.49a1.26,1.26,0,1,0-1.26,1.29,1.27,1.27,0,0,0,1.26-1.29" transform="translate(0 -83.58)"/><path class="cls-115" d="M234.74,443.46a1.26,1.26,0,1,0-1.26,1.29,1.27,1.27,0,0,0,1.26-1.29" transform="translate(0 -83.58)"/><text class="cls-116" transform="translate(202.27 341.8) scale(1 1.03)">Mo</text><text class="cls-116" transform="translate(215.56 341.8) scale(1 1.03)">Di</text><text class="cls-116" transform="translate(228.85 341.8) scale(1 1.03)">Mi</text><text class="cls-116" transform="translate(242.14 341.8) scale(1 1.03)">Do</text><text class="cls-116" transform="translate(255.42 341.8) scale(1 1.03)"><tspan class="cls-117">F</tspan><tspan x="2.32" y="0">r</tspan></text><text class="cls-118" transform="translate(268.71 341.8) scale(1 1.03)">Sa</text><text class="cls-118" transform="translate(282 341.8) scale(1 1.03)">So</text><text class="cls-119" transform="translate(202.27 354.62) scale(1 1.03)">2<tspan class="cls-102" x="2.01" y="0">7</tspan></text><text class="cls-120" transform="translate(215.56 354.62) scale(1 1.03)">28</text><text class="cls-120" transform="translate(228.85 354.62) scale(1 1.03)">29</text><text class="cls-120" transform="translate(242.14 354.62) scale(1 1.03)">30</text><text class="cls-121" transform="translate(255.42 354.62) scale(1 1.03)">3<tspan class="cls-102" x="1.76" y="0">1</tspan></text><text class="cls-122" transform="translate(268.71 354.62) scale(1 1.03)">1</text><text class="cls-122" transform="translate(282 354.62) scale(1 1.03)">2</text><text class="cls-123" transform="translate(202.27 370.9) scale(1 1.03)">3</text><text class="cls-123" transform="translate(215.56 370.9) scale(1 1.03)">4</text><text class="cls-124" transform="translate(228.85 373.66) scale(1 1.03)">5</text><text class="cls-123" transform="translate(242.14 370.9) scale(1 1.03)">6</text><text class="cls-123" transform="translate(255.42 370.9) scale(1 1.03)">7</text><text class="cls-122" transform="translate(268.71 370.9) scale(1 1.03)">8</text><text class="cls-122" transform="translate(282 370.9) scale(1 1.03)">9</text><text class="cls-123" transform="translate(202.27 387.18) scale(1 1.03)"><tspan class="cls-125">1</tspan><tspan x="1.89" y="0">0</tspan></text><text class="cls-123" transform="translate(215.56 387.18) scale(1 1.03)"><tspan class="cls-126">1</tspan><tspan x="1.58" y="0">1 </tspan></text><text class="cls-123" transform="translate(228.85 387.18) scale(1 1.03)"><tspan class="cls-127">1</tspan><tspan x="1.8" y="0">2</tspan></text><text class="cls-128" transform="translate(242.14 387.18) scale(1 1.03)">1<tspan class="cls-102" x="1.82" y="0">3</tspan></text><text class="cls-129" transform="translate(255.42 387.18) scale(1 1.03)">1<tspan class="cls-102" x="1.83" y="0">4</tspan></text><text class="cls-122" transform="translate(268.71 387.18) scale(1 1.03)"><tspan class="cls-130">1</tspan><tspan x="1.81" y="0">5</tspan></text><text class="cls-122" transform="translate(282 387.18) scale(1 1.03)"><tspan class="cls-131">1</tspan><tspan x="1.82" y="0">6</tspan></text><text class="cls-123" transform="translate(202.27 403.46) scale(1 1.03)"><tspan class="cls-132">1</tspan><tspan x="1.75" y="0">7</tspan></text><text class="cls-123" transform="translate(215.56 403.46) scale(1 1.03)"><tspan class="cls-133">1</tspan><tspan x="1.82" y="0">8</tspan></text><text class="cls-123" transform="translate(228.85 403.46) scale(1 1.03)"><tspan class="cls-133">1</tspan><tspan x="1.82" y="0">9</tspan></text><text class="cls-123" transform="translate(242.14 403.46) scale(1 1.03)">20</text><text class="cls-123" transform="translate(255.42 403.46) scale(1 1.03)"><tspan class="cls-134">2</tspan><tspan x="1.79" y="0">1</tspan></text><text class="cls-122" transform="translate(268.71 403.46) scale(1 1.03)">22</text><text class="cls-122" transform="translate(282 403.46) scale(1 1.03)">23</text><text class="cls-123" transform="translate(202.27 419.74) scale(1 1.03)"><tspan class="cls-117">2</tspan><tspan x="2.04" y="0">4</tspan></text><text class="cls-123" transform="translate(215.56 419.74) scale(1 1.03)">25</text><text class="cls-123" transform="translate(228.85 419.74) scale(1 1.03)">26</text><text class="cls-135" transform="translate(242.14 419.74) scale(1 1.03)">2<tspan class="cls-102" x="2.01" y="0">7</tspan></text><text class="cls-123" transform="translate(255.42 419.74) scale(1 1.03)">28</text><text class="cls-122" transform="translate(268.71 419.74) scale(1 1.03)">29</text><text class="cls-122" transform="translate(282 419.74) scale(1 1.03)">30</text><text class="cls-136" transform="translate(237.19 327.64) scale(1 1.03)">Juni</text><path class="cls-115" d="M266.55,407.14l-6.78-1.88a1,1,0,0,0-1.22,1V410a1,1,0,0,0,1.22,1l6.78-1.88a1,1,0,0,0,0-1.92" transform="translate(0 -83.58)"/><path class="cls-115" d="M220.7,407.14l6.78-1.88a1,1,0,0,1,1.22,1V410a1,1,0,0,1-1.22,1l-6.78-1.88a1,1,0,0,1,0-1.92" transform="translate(0 -83.58)"/><text class="cls-124" transform="translate(326.01 332.08) scale(1 1.03)">Mitt<tspan class="cls-137" x="11.07" y="0">w</tspan><tspan x="15.97" y="0">o</tspan><tspan class="cls-138" x="19.81" y="0">c</tspan><tspan x="23.09" y="0">h</tspan></text><text class="cls-124" transform="translate(319.31 341.16) scale(1 1.03)">05. Juni 2<tspan class="cls-139" x="28.62" y="0">0</tspan><tspan class="cls-132" x="32.28" y="0">1</tspan><tspan x="35.79" y="0">7</tspan></text><path class="cls-115" d="M309.84,437.4a2,2,0,1,0-2,2.06,2,2,0,0,0,2-2.06" transform="translate(0 -83.58)"/><path class="cls-114" d="M309.84,455.57a2,2,0,1,0-2,2.06,2,2,0,0,0,2-2.06" transform="translate(0 -83.58)"/><path class="cls-113" d="M309.47,473.75a2,2,0,1,0-2,2.06,2,2,0,0,0,2-2.06" transform="translate(0 -83.58)"/><text class="cls-116" transform="translate(313.92 354.5) scale(1 1.03)"><tspan class="cls-140">K</tspan><tspan class="cls-141" x="2.97" y="0">ö</tspan><tspan class="cls-142" x="5.85" y="0">r</tspan><tspan x="7.52" y="0">ne</tspan><tspan class="cls-142" x="12.78" y="0">r</tspan><tspan x="14.46" y="0">pa</tspan><tspan class="cls-143" x="20.26" y="0">r</tspan><tspan class="cls-141" x="21.93" y="0">k</tspan></text><text class="cls-122" transform="translate(313.92 359.98) scale(1 1.03)"><tspan class="cls-144">N</tspan><tspan x="2.86" y="0">eu</tspan><tspan class="cls-145" x="6.35" y="0">k</tspan><tspan x="7.81" y="0">ölln</tspan></text><text class="cls-116" transform="translate(313.92 371.92) scale(1 1.03)">S<tspan class="cls-138" x="2.86" y="0">c</tspan><tspan x="5.32" y="0">hlosspa</tspan><tspan class="cls-142" x="21.63" y="0">r</tspan><tspan x="23.3" y="0">k Cha</tspan><tspan class="cls-142" x="36.09" y="0">r</tspan><tspan x="37.76" y="0">l</tspan><tspan class="cls-146" x="38.9" y="0">o</tspan><tspan x="41.79" y="0">t</tspan><tspan class="cls-147" x="42.98" y="0">t</tspan><tspan class="cls-141" x="44.19" y="0">enbu</tspan><tspan class="cls-148" x="54.92" y="0">r</tspan><tspan class="cls-149" x="56.49" y="0">g </tspan></text><text class="cls-122" transform="translate(313.92 377.39) scale(1 1.03)">Cha<tspan class="cls-144" x="6.05" y="0">r</tspan><tspan x="7.16" y="0">lot</tspan><tspan class="cls-94" x="10.64" y="0">t</tspan><tspan x="11.45" y="0">enbu</tspan><tspan class="cls-150" x="18.6" y="0">r</tspan><tspan x="19.65" y="0">g</tspan></text><text class="cls-116" transform="translate(313.92 389.33) scale(1 1.03)">B<tspan class="cls-151" x="2.93" y="0">o</tspan><tspan x="5.72" y="0">xha</tspan><tspan class="cls-152" x="13.73" y="0">g</tspan><tspan x="16.66" y="0">ener Platz</tspan></text><text class="cls-122" transform="translate(313.92 394.81) scale(1 1.03)"><tspan class="cls-117">F</tspan><tspan class="cls-144" x="1.55" y="0">r</tspan><tspan x="2.66" y="0">ied</tspan><tspan class="cls-153" x="7.14" y="0">r</tspan><tspan x="8.25" y="0">i</tspan><tspan class="cls-138" x="9.02" y="0">c</tspan><tspan x="10.66" y="0">hshain</tspan></text><path class="cls-114" d="M232.23,461.06a1.26,1.26,0,1,1,1.26,1.29,1.27,1.27,0,0,1-1.26-1.29" transform="translate(0 -83.58)"/><path class="cls-115" d="M228.78,461.06a1.26,1.26,0,1,1,1.26,1.29,1.27,1.27,0,0,1-1.26-1.29" transform="translate(0 -83.58)"/><path class="cls-113" d="M238.25,461.06a1.26,1.26,0,1,0-1.26,1.29,1.27,1.27,0,0,0,1.26-1.29" transform="translate(0 -83.58)"/><path class="cls-110" d="M370.76,382.46V388a3,3,0,0,1-2.91,3h-5.62a3,3,0,0,1-2.91-3v-5.58a3,3,0,0,1,2.91-3h5.62a3,3,0,0,1,2.91,3" transform="translate(0 -83.58)"/><path class="cls-115" d="M366.44,388.11a1,1,0,0,1-.2.6.64.64,0,0,1-.49.25H364.5a.79.79,0,0,1-.69-.85,1,1,0,0,1,.2-.6.64.64,0,0,1,.49-.25h1.25a.79.79,0,0,1,.69.85" transform="translate(0 -83.58)"/><path class="cls-115" d="M369.83,385.34a1,1,0,0,1-.2.61.63.63,0,0,1-.49.25h-1.25a.8.8,0,0,1-.69-.87,1,1,0,0,1,.2-.61.63.63,0,0,1,.49-.25h1.25a.8.8,0,0,1,.69.87" transform="translate(0 -83.58)"/><path class="cls-115" d="M366.44,382.57a1,1,0,0,1-.2.6.64.64,0,0,1-.49.25H364.5a.79.79,0,0,1-.69-.85,1,1,0,0,1,.2-.6.64.64,0,0,1,.49-.25h1.25a.79.79,0,0,1,.69.85" transform="translate(0 -83.58)"/><path class="cls-115" d="M366.44,385.34a1,1,0,0,1-.2.61.63.63,0,0,1-.49.25H364.5a.8.8,0,0,1-.69-.87,1,1,0,0,1,.2-.61.63.63,0,0,1,.49-.25h1.25a.8.8,0,0,1,.69.87" transform="translate(0 -83.58)"/><path class="cls-115" d="M363.06,385.34a1,1,0,0,1-.2.61.63.63,0,0,1-.49.25h-1.25a.8.8,0,0,1-.69-.87,1,1,0,0,1,.2-.61.63.63,0,0,1,.49-.25h1.25a.8.8,0,0,1,.69.87" transform="translate(0 -83.58)"/><path class="cls-110" d="M354,382.41v5.67A2.9,2.9,0,0,1,351.1,391h-5.53a2.9,2.9,0,0,1-2.86-2.94v-5.67a2.9,2.9,0,0,1,2.86-2.94h5.53a2.9,2.9,0,0,1,2.86,2.94" transform="translate(0 -83.58)"/><path class="cls-115" d="M349.16,388.25h0a.85.85,0,0,1-1.7,0,.42.42,0,0,1,0,0,.85.85,0,1,1,1.71,0" transform="translate(0 -83.58)"/><path class="cls-115" d="M351,386.74a8.89,8.89,0,0,1-2.64.16,9.85,9.85,0,0,1-2.95-.16c-.16-.32.54-.55.55-.74.07-3.13,1-3.4,1.78-3.56.09,0,.37-1.27.47-1.27s.32,1.25.47,1.27c1,.18,1.74.47,2,3.6,0,.17.52.53.37.69" transform="translate(0 -83.58)"/><line class="cls-154" x1="297.86" y1="422.35" x2="297.86" y2="324.66"/></g></g></svg>