<svg id="Ebene_1" data-name="Ebene 1" xmlns="http://www.w3.org/2000/svg" viewBox="0 0 557.72 557.72"><defs><style>.cls-1{fill:#191919;}.cls-2{fill:#d4c548;}.cls-3{fill:none;stroke:#d4c548;stroke-miterlimit:10;stroke-width:8.7px;}</style></defs><title>insta</title><rect class="cls-1" x="4.4" y="4.4" width="548.92" height="548.93" rx="124.88" ry="124.88"/><path class="cls-2" d="M433.32,13.83A120.48,120.48,0,0,1,553.8,134.31V433.48A120.48,120.48,0,0,1,433.32,554H134.15A120.48,120.48,0,0,1,13.67,433.48V134.31A120.48,120.48,0,0,1,134.15,13.83H433.32m0-8.79H134.15A129.28,129.28,0,0,0,4.88,134.31V433.48A129.28,129.28,0,0,0,134.15,562.76H433.32A129.28,129.28,0,0,0,562.6,433.48V134.31A129.28,129.28,0,0,0,433.32,5Z" transform="translate(-4.88 -5.04)"/><rect class="cls-3" x="145.82" y="145.92" width="265.3" height="265.3" rx="132.65" ry="132.65"/><rect class="cls-3" x="438.93" y="79.6" width="36.74" height="36.74" rx="18.37" ry="18.37"/></svg>