<svg id="Ebene_1" data-name="Ebene 1" xmlns="http://www.w3.org/2000/svg" viewBox="0 0 549.02 496.89"><defs><style>.cls-1{fill:#191919;}.cls-2{fill:#d4c548;}.cls-3,.cls-4{fill:none;stroke:#d4c548;stroke-miterlimit:10;stroke-width:8.61px;}.cls-3{stroke-linecap:round;}</style></defs><title>mail</title><rect class="cls-1" x="4.84" y="4.84" width="539.34" height="487.21" rx="14.52" ry="14.52"/><path class="cls-2" d="M540.1,30.23a9.69,9.69,0,0,1,9.68,9.68V498.08a9.69,9.69,0,0,1-9.68,9.68H29.81a9.69,9.69,0,0,1-9.68-9.68V39.91a9.69,9.69,0,0,1,9.68-9.68H540.1m0-9.68H29.81A19.36,19.36,0,0,0,10.44,39.91V498.08a19.36,19.36,0,0,0,19.36,19.36H540.1a19.36,19.36,0,0,0,19.36-19.36V39.91A19.36,19.36,0,0,0,540.1,20.55Z" transform="translate(-10.44 -20.55)"/><line class="cls-3" x1="273.83" y1="340.22" x2="536.89" y2="11.23"/><line class="cls-4" x1="6.42" y1="5.94" x2="273.83" y2="340.22"/></svg>